<svg width="14" height="14" viewBox="0 0 14 14" fill="none" xmlns="http://www.w3.org/2000/svg">
<path d="M12.936 7.23463V7.89069L13.2177 8.10195V9.6673L12.936 9.97658V10.5586L13.2177 10.7941V12.8667H0.794067V10.7941L1.07576 10.5586V9.95771L0.794067 9.6673V8.10195L1.07576 7.89069V7.23463L0.794067 6.97519V3.42816C0.794067 3.31914 0.882224 3.23099 0.991243 3.23099H13.0205C13.1295 3.23099 13.2177 3.31917 13.2177 3.42816V6.97522L12.936 7.23463Z" fill="#7E454D"/>
<path d="M13.2177 12.0217V12.8667H0.794067V10.7941L1.07576 10.5586V9.95771L0.794067 9.6673V8.10195L1.07576 7.89069V7.23463L0.794067 6.97519V3.42816C0.794067 3.31914 0.882224 3.23099 0.991243 3.23099H2.20252V11.5992C2.20252 11.8324 2.39182 12.0217 2.62506 12.0217H13.2177V12.0217Z" fill="#683840"/>
<path d="M0.794067 9.66736H13.2178V10.7941H0.794067V9.66736Z" fill="#FFEAD8"/>
<path d="M0.794067 6.97508H13.2178V8.10184H0.794067V6.97508Z" fill="#FFEAD8"/>
<path d="M0.794067 9.66727H2.20252V10.794H0.794067V9.66727Z" fill="#FFE3CB"/>
<path d="M0.794067 6.97504H2.20252V8.10179H0.794067V6.97504Z" fill="#FFE3CB"/>
<path d="M14 12.6396V13.0364C14 13.565 13.5715 13.9934 13.043 13.9934H0.957031C0.428477 13.9934 0 13.565 0 13.0364V12.7764C0 12.6705 0.0855859 12.585 0.191406 12.585H13.9453C13.9754 12.585 14 12.6096 14 12.6396Z" fill="#98E5FB"/>
<path d="M2.39449 13.9934H0.957031C0.428477 13.9934 0 13.565 0 13.0364V12.7764C0 12.6705 0.0855859 12.585 0.191406 12.585H1.40848V13.0074C1.40848 13.5521 1.8498 13.9934 2.39449 13.9934Z" fill="#62DBFA"/>
<path d="M0.794067 3.42809V4.23946C0.794067 4.72957 1.19137 5.12687 1.68148 5.12687C2.17159 5.12687 2.56889 4.72957 2.56889 4.23946C2.56889 4.72957 2.9662 5.12687 3.45631 5.12687C3.94642 5.12687 4.34372 4.72957 4.34372 4.23946C4.34372 4.72957 4.74103 5.12687 5.23113 5.12687C5.72124 5.12687 6.11855 4.72957 6.11855 4.23946C6.11855 4.72957 6.51585 5.12687 7.00596 5.12687C7.49607 5.12687 7.89337 4.72957 7.89337 4.23946C7.89337 4.72957 8.29068 5.12687 8.78079 5.12687C9.2709 5.12687 9.6682 4.72957 9.6682 4.23946C9.6682 4.72957 10.0655 5.12687 10.5556 5.12687C11.0457 5.12687 11.443 4.72957 11.443 4.23946C11.443 4.72957 11.8403 5.12687 12.3304 5.12687C12.8205 5.12687 13.2179 4.72957 13.2179 4.23946V3.42809C13.2179 3.31918 13.1296 3.23091 13.0207 3.23091H0.99127C0.88236 3.23091 0.794067 3.3192 0.794067 3.42809Z" fill="#E58758"/>
<path d="M2.10394 5.02012C1.9801 5.08733 1.83846 5.12577 1.68791 5.12687C1.19627 5.13039 0.794067 4.71195 0.794067 4.22031V3.42803C0.794067 3.31912 0.88236 3.23085 0.991243 3.23085H1.63913V4.23959C1.63915 4.57674 1.82706 4.8697 2.10394 5.02012Z" fill="#DF7246"/>
<path d="M9.34233 3.22284L9.90416 3.21532C10.4938 3.20734 10.9653 2.72283 10.9572 2.13325L10.9569 2.1149C10.9524 1.78256 10.8006 1.47429 10.5437 1.27074L10.5422 1.26959C10.2976 1.07595 10.1112 0.818668 10.0034 0.52598C9.95735 0.370176 9.86233 0.239308 9.73808 0.147871C9.61402 0.0564335 9.46073 0.00448035 9.29828 0.00672254C9.13583 0.00896472 8.98404 0.0650741 8.86253 0.159875C8.74082 0.254676 8.64944 0.388113 8.6076 0.545121C8.55775 0.692887 8.488 0.832312 8.40083 0.959898C8.31365 1.0874 8.20895 1.20312 8.08941 1.3032L8.08799 1.30437C7.8367 1.51487 7.69344 1.82719 7.69798 2.15952L7.69823 2.17787C7.70629 2.76746 8.19088 3.23886 8.7805 3.23071L9.34233 3.22284Z" fill="#FD4755"/>
<path d="M4.68717 3.22284L5.249 3.21532C5.83859 3.20734 6.31011 2.72283 6.30201 2.13325L6.30177 2.1149C6.29723 1.78256 6.14544 1.47429 5.88849 1.27074L5.88704 1.26959C5.64245 1.07595 5.45605 0.818668 5.34829 0.52598C5.30219 0.370176 5.20717 0.239308 5.08292 0.147871C4.95886 0.0564335 4.80557 0.00448035 4.64312 0.00672254C4.48067 0.00896472 4.32889 0.0650741 4.20737 0.159875C4.08567 0.254676 3.99428 0.388113 3.95245 0.545121C3.9026 0.692887 3.83284 0.832312 3.74567 0.959898C3.6585 1.0874 3.5538 1.20312 3.43426 1.3032L3.43283 1.30437C3.18154 1.51487 3.03829 1.82719 3.04283 2.15952L3.04308 2.17787C3.05114 2.76746 3.53573 3.23886 4.12534 3.23071L4.68717 3.22284Z" fill="#FE646F"/>
<path d="M9.3328 2.74701C9.21746 2.74701 9.12321 2.65434 9.1216 2.53862L9.11867 2.32471C9.11709 2.20804 9.21035 2.11217 9.32703 2.11058C9.44398 2.10911 9.53957 2.20227 9.54116 2.31894L9.54408 2.53285C9.54567 2.64953 9.4524 2.7454 9.33572 2.74698C9.33477 2.74701 9.33378 2.74701 9.3328 2.74701Z" fill="#FE646F"/>
<path d="M10.0313 2.19726C9.91595 2.19726 9.8217 2.10459 9.82008 1.98887L9.81716 1.77496C9.81557 1.65829 9.90884 1.56242 10.0255 1.56083C10.0265 1.56081 10.0275 1.56081 10.0285 1.56081C10.1438 1.56081 10.2381 1.65347 10.2397 1.76919L10.2426 1.9831C10.2442 2.09978 10.1509 2.19565 10.0342 2.19723C10.0333 2.19726 10.0322 2.19726 10.0313 2.19726Z" fill="#FE646F"/>
<path d="M9.31205 1.48832C9.19671 1.48832 9.10246 1.39565 9.10085 1.27993L9.09792 1.06602C9.09633 0.949345 9.1896 0.853478 9.30628 0.851892C9.42268 0.850853 9.51882 0.943575 9.5204 1.06025L9.52333 1.27416C9.52492 1.39084 9.43165 1.48671 9.31497 1.48829C9.31402 1.48832 9.31303 1.48832 9.31205 1.48832Z" fill="#FE646F"/>
<path d="M4.67765 2.747C4.56232 2.747 4.46806 2.65434 4.46645 2.53862L4.46352 2.32471C4.46193 2.20803 4.55521 2.11216 4.67188 2.11058C4.67287 2.11055 4.67385 2.11055 4.67484 2.11055C4.79017 2.11055 4.88443 2.20322 4.88604 2.31894L4.88897 2.53285C4.89055 2.64952 4.79728 2.74539 4.68061 2.74698C4.67962 2.747 4.67864 2.747 4.67765 2.747Z" fill="#FD4755"/>
<path d="M4.01298 2.20888C3.89764 2.20888 3.80339 2.11622 3.80177 2.0005L3.79885 1.78659C3.79726 1.66991 3.89053 1.57405 4.00721 1.57246C4.00819 1.57243 4.00918 1.57243 4.01016 1.57243C4.1255 1.57243 4.21975 1.6651 4.22137 1.78082L4.22429 1.99473C4.22588 2.1114 4.13261 2.20727 4.01593 2.20886C4.01495 2.20888 4.01396 2.20888 4.01298 2.20888Z" fill="#FD4755"/>
<path d="M4.6569 1.48832C4.54156 1.48832 4.44731 1.39565 4.4457 1.27993L4.44277 1.06602C4.44118 0.949345 4.53445 0.853478 4.65113 0.851892C4.76811 0.850853 4.86368 0.943575 4.86526 1.06025L4.86819 1.27416C4.86977 1.39084 4.7765 1.48671 4.65983 1.48829C4.65887 1.48832 4.65788 1.48832 4.6569 1.48832Z" fill="#FD4755"/>
<path d="M6.95512 3.22284L7.51695 3.21532C8.10653 3.20734 8.57805 2.72283 8.56996 2.13325L8.56971 2.1149C8.56517 1.78256 8.41339 1.47429 8.15644 1.27074L8.15499 1.26959C7.9104 1.07595 7.724 0.818668 7.61623 0.52598C7.57013 0.370176 7.47511 0.239308 7.35086 0.147871C7.2268 0.0564335 7.07352 0.00448035 6.91107 0.00672254C6.74864 0.00893738 6.59683 0.0650741 6.47532 0.159875C6.35361 0.254676 6.26223 0.388113 6.22039 0.545121C6.17054 0.692887 6.10079 0.832312 6.01362 0.959898C5.92645 1.0874 5.82175 1.20312 5.7022 1.3032L5.70078 1.30437C5.44949 1.51487 5.30623 1.82719 5.31077 2.15952L5.31102 2.17787C5.31909 2.76746 5.80367 3.23886 6.39329 3.23071L6.95512 3.22284Z" fill="#FE646F"/>
<path d="M7.30553 0.117081C7.28426 0.130152 7.26375 0.144507 7.24403 0.159874C7.1223 0.254703 7.03108 0.388195 6.9893 0.545038C6.93932 0.692913 6.86962 0.832312 6.7825 0.959925C6.69511 1.08729 6.59055 1.20312 6.47089 1.30334L6.4696 1.30435C6.21821 1.515 6.07495 1.82713 6.07957 2.1595L6.07982 2.17795C6.08726 2.7161 6.49216 3.15587 7.01109 3.22199L6.95523 3.22276L6.39323 3.23071C5.80381 3.23892 5.31923 2.76737 5.31102 2.17798L5.31078 2.15952C5.30616 1.82713 5.44941 1.515 5.70081 1.30437L5.70209 1.30336C5.82178 1.20318 5.92634 1.08732 6.0137 0.959952C6.10082 0.832339 6.17055 0.692913 6.2205 0.545066C6.26228 0.388222 6.3535 0.254703 6.47524 0.159902C6.5967 0.0650736 6.74868 0.00896424 6.91115 0.00666737C7.05413 0.00483533 7.19022 0.0448119 7.30553 0.117081Z" fill="#FD4755"/>
<path d="M6.94571 2.74701C6.83038 2.74701 6.73613 2.65434 6.73451 2.53862L6.73159 2.32471C6.73 2.20804 6.82327 2.11217 6.93995 2.11058C7.05695 2.10911 7.15249 2.20227 7.15407 2.31894L7.157 2.53285C7.15858 2.64953 7.06532 2.7454 6.94864 2.74698C6.94768 2.74701 6.9467 2.74701 6.94571 2.74701Z" fill="#FD4755"/>
<path d="M7.6442 2.19726C7.52887 2.19726 7.43461 2.10459 7.433 1.98887L7.43007 1.77496C7.42849 1.65829 7.52176 1.56242 7.63843 1.56083C7.75398 1.55851 7.85097 1.65252 7.85256 1.76919L7.85548 1.9831C7.85707 2.09978 7.7638 2.19565 7.64713 2.19723C7.64617 2.19726 7.64518 2.19726 7.6442 2.19726Z" fill="#FD4755"/>
<path d="M6.28105 2.20888C6.16571 2.20888 6.07145 2.11622 6.06984 2.0005L6.06691 1.78659C6.06533 1.66991 6.1586 1.57405 6.27528 1.57246C6.27626 1.57243 6.27724 1.57243 6.27823 1.57243C6.39357 1.57243 6.48782 1.6651 6.48943 1.78082L6.49236 1.99473C6.49395 2.1114 6.40068 2.20727 6.284 2.20886C6.28301 2.20888 6.282 2.20888 6.28105 2.20888Z" fill="#FD4755"/>
<path d="M6.92496 1.48832C6.80963 1.48832 6.71537 1.39565 6.71376 1.27993L6.71084 1.06602C6.70925 0.949345 6.80252 0.853478 6.91919 0.851892C7.03565 0.850853 7.13173 0.943575 7.13332 1.06025L7.13624 1.27416C7.13783 1.39084 7.04456 1.48671 6.92789 1.48829C6.9269 1.48832 6.92592 1.48832 6.92496 1.48832Z" fill="#FD4755"/>
</svg>
