<svg width="14" height="16" viewBox="0 0 14 16" fill="none" xmlns="http://www.w3.org/2000/svg">
<path d="M9.94788 15.7656H4.05212C3.36 15.7656 2.7423 15.2692 2.50819 14.5248L1.02539 9.80991H12.9746L11.4918 14.5248C11.2577 15.2692 10.64 15.7656 9.94788 15.7656Z" fill="#CBE2FF"/>
<path d="M12.9746 9.80991H12.1543H1.02539L1.79834 12.2677C2.23109 12.2654 2.62265 12.0665 2.9076 11.7457C2.98148 11.6625 3.10179 11.6624 3.17565 11.7456C3.46221 12.0683 3.85662 12.2679 4.29234 12.2679C4.77591 12.2679 5.2089 12.0223 5.49976 11.6351C5.57621 11.5333 5.7161 11.5333 5.79255 11.6351C6.08344 12.0223 6.5164 12.2679 7 12.2679C7.4836 12.2679 7.91656 12.0223 8.20745 11.6351C8.2839 11.5333 8.42379 11.5333 8.50024 11.6351C8.7911 12.0223 9.22409 12.2679 9.70766 12.2679C10.1434 12.2679 10.5378 12.0683 10.8244 11.7455C10.8987 11.6618 11.0171 11.6607 11.0913 11.7445C11.0929 11.7462 11.0944 11.7479 11.096 11.7497C11.2994 11.9773 11.3642 12.3221 11.2679 12.6284L10.6715 14.5248C10.4374 15.2692 9.81971 15.7656 9.12759 15.7656H9.9479C10.64 15.7656 11.2577 15.2692 11.4918 14.5248L12.2017 12.2677L12.9746 9.80991Z" fill="#BED8FB"/>
<path d="M12.209 7.73213C11.9917 7.73213 11.7848 7.78188 11.5963 7.87169C11.4979 7.91856 11.3854 7.86794 11.3439 7.75578C10.7192 6.06969 9.01037 4.85938 7 4.85938C4.98963 4.85938 3.28081 6.06969 2.65612 7.75578C2.61458 7.86794 2.50206 7.91856 2.40371 7.87169C2.21525 7.78185 2.00829 7.73213 1.79099 7.73213C0.915113 7.73213 0.205078 8.53763 0.205078 9.53125C0.205078 10.5249 0.915113 11.3304 1.79099 11.3304C2.22671 11.3304 2.62112 11.1308 2.90768 10.8081C2.98154 10.7249 3.10182 10.7249 3.17565 10.8081C3.46221 11.1308 3.85662 11.3304 4.29234 11.3304C4.77591 11.3304 5.2089 11.0848 5.49978 10.6976C5.57733 10.5943 5.71501 10.5943 5.79258 10.6976C6.08347 11.0848 6.51643 11.3304 7.00003 11.3304C7.48363 11.3304 7.91659 11.0848 8.20747 10.6976C8.28502 10.5943 8.4227 10.5943 8.50027 10.6976C8.79113 11.0848 9.22411 11.3304 9.70772 11.3304C10.1434 11.3304 10.5378 11.1308 10.8244 10.8081C10.8983 10.7249 11.0185 10.7249 11.0924 10.8081C11.3789 11.1308 11.7734 11.3304 12.2091 11.3304C13.0849 11.3304 13.795 10.5249 13.795 9.53125C13.795 8.53763 13.0849 7.73213 12.209 7.73213Z" fill="#C6855B"/>
<path d="M12.209 7.73213C11.9917 7.73213 11.7848 7.78185 11.5963 7.87169C11.498 7.91856 11.3854 7.86794 11.3439 7.75581C10.7192 6.06969 9.01038 4.85938 7.00002 4.85938C5.95264 4.85938 4.98724 5.18803 4.21423 5.74119C4.5122 5.60881 4.82777 5.50553 5.15675 5.43538C5.39152 5.38366 5.74715 5.3241 6.17973 5.32813C6.45489 5.33069 8.57715 5.38422 10.065 7.05169C10.6506 7.70794 10.8186 8.25628 11.499 8.49191C11.8803 8.62394 12.1624 8.55978 12.481 8.87344C12.5332 8.92481 12.9556 9.35331 12.9747 9.99997C12.9811 10.2168 12.9382 10.3946 12.9181 10.4773C12.8406 10.7971 12.6871 11.0812 12.4813 11.3034C13.2274 11.1569 13.795 10.4195 13.795 9.53122C13.7949 8.53763 13.0849 7.73213 12.209 7.73213Z" fill="#C17E4E"/>
<path d="M10.0619 8.01717C10.2381 7.81584 10.0866 7.31631 9.72359 6.90144C9.36058 6.48657 8.92349 6.31346 8.74732 6.5148C8.57116 6.71613 8.72262 7.21566 9.08563 7.63053C9.44864 8.0454 9.88573 8.21851 10.0619 8.01717Z" fill="#DEB9A2"/>
<path d="M4.8022 7.62994C5.16521 7.21507 5.31668 6.71554 5.14051 6.51421C4.96435 6.31288 4.52726 6.48598 4.16425 6.90085C3.80124 7.31572 3.64977 7.81525 3.82594 8.01659C4.0021 8.21792 4.43919 8.04481 4.8022 7.62994Z" fill="#DEB9A2"/>
<path d="M7 8.32812C7.24918 8.32812 7.45117 7.85243 7.45117 7.26562C7.45117 6.67882 7.24918 6.20312 7 6.20312C6.75082 6.20312 6.54883 6.67882 6.54883 7.26562C6.54883 7.85243 6.75082 8.32812 7 8.32812Z" fill="#DEB9A2"/>
<path d="M6.55966 2.18209C6.55966 2.4899 6.66455 2.7793 6.855 2.99696C6.93509 3.08852 7.06494 3.08849 7.14503 2.99696C7.22512 2.90543 7.22512 2.75702 7.14503 2.66552C6.91179 2.39896 6.91179 1.96524 7.14503 1.69868C7.53818 1.24937 7.53818 0.518242 7.14503 0.0688983C7.06491 -0.0226329 6.93509 -0.0226329 6.855 0.0688983C6.77491 0.16043 6.77491 0.308836 6.855 0.400336C7.08824 0.666898 7.08824 1.10065 6.855 1.36721C6.66452 1.58487 6.55966 1.87427 6.55966 2.18209ZM12.209 7.49799C11.9732 7.49799 11.744 7.5494 11.5276 7.6508C11.261 6.93877 10.8052 6.29477 10.2088 5.78777C10.118 5.71052 9.98949 5.73209 9.92187 5.83593C9.85425 5.9398 9.87315 6.08662 9.96401 6.16387C10.5058 6.62443 10.9176 7.20662 11.1551 7.84743C11.2399 8.07646 11.4732 8.18446 11.6753 8.08827C11.8444 8.00762 12.024 7.96674 12.209 7.96674C12.9704 7.96674 13.5898 8.66868 13.5898 9.53149C13.5898 10.3943 12.9704 11.0962 12.209 11.0962C11.8422 11.0962 11.4967 10.9347 11.2363 10.6413C11.083 10.4688 10.8336 10.4688 10.6804 10.6414C10.42 10.9347 10.0745 11.0962 9.70766 11.0962C9.30232 11.0962 8.91893 10.8954 8.65583 10.5451C8.57987 10.444 8.46981 10.386 8.35387 10.386C8.35387 10.386 8.35387 10.386 8.35384 10.386C8.23793 10.386 8.12782 10.444 8.05183 10.5451C7.78876 10.8954 7.40537 11.0962 7 11.0962C6.59463 11.0962 6.21124 10.8954 5.94814 10.5451C5.87215 10.444 5.76207 10.386 5.64613 10.386C5.53019 10.386 5.42013 10.444 5.34417 10.5451C5.08107 10.8954 4.69768 11.0962 4.29234 11.0962C3.92547 11.0962 3.58001 10.9347 3.31959 10.6413C3.16632 10.4688 2.91695 10.4688 2.76374 10.6414C2.50327 10.9347 2.1578 11.0962 1.79099 11.0962C1.02957 11.0962 0.410156 10.3943 0.410156 9.53149C0.410156 8.66868 1.02957 7.96674 1.79099 7.96674C1.97605 7.96674 2.15562 8.00762 2.32477 8.08827C2.52684 8.18462 2.76011 8.07643 2.84493 7.84743C3.4551 6.20052 5.1249 5.09399 7 5.09399C7.76379 5.09399 8.51602 5.27909 9.17539 5.62927C9.27817 5.68387 9.40007 5.6329 9.44781 5.51549C9.49553 5.39812 9.45096 5.25874 9.34825 5.20418C8.6351 4.82543 7.8231 4.62524 7 4.62524C4.96759 4.62524 3.15011 5.84052 2.47242 7.65077C2.25602 7.54937 2.0268 7.49796 1.79099 7.49796C0.803441 7.49799 0 8.41021 0 9.53149C0 10.4754 0.569406 11.271 1.33867 11.4992L2.31525 14.6042C2.5778 15.4392 3.27578 16.0002 4.05207 16.0002H5.2707C5.38398 16.0002 5.47578 15.8953 5.47578 15.7659C5.47578 15.6364 5.38398 15.5315 5.2707 15.5315H4.05207C3.44829 15.5315 2.90544 15.0951 2.70123 14.4456L1.79517 11.5649C2.2642 11.5636 2.70616 11.3585 3.04166 10.9864C3.37813 11.3596 3.82173 11.565 4.29234 11.565C4.81272 11.565 5.30537 11.3091 5.64618 10.8626C5.98697 11.3092 6.47957 11.565 7 11.565C7.52046 11.565 8.01309 11.3092 8.35384 10.8626C8.69466 11.3092 9.18725 11.565 9.70766 11.565C10.1783 11.565 10.6219 11.3596 10.9583 10.9864C11.2939 11.3585 11.7358 11.5636 12.2048 11.5649L11.2987 14.4457C11.0945 15.0951 10.5517 15.5315 9.94793 15.5315H6.22776C6.11447 15.5315 6.02268 15.6364 6.02268 15.7659C6.02268 15.8953 6.11447 16.0002 6.22776 16.0002H9.94793C10.7242 16.0002 11.4222 15.4392 11.6847 14.6042L12.6614 11.4992C13.4306 11.271 14 10.4754 14 9.53149C14 8.41021 13.1966 7.49799 12.209 7.49799ZM8.08544 3.24099C8.16553 3.33252 8.29536 3.33249 8.37545 3.24099C8.45556 3.14946 8.45556 3.00109 8.37547 2.90955C8.22587 2.73859 8.22587 2.4604 8.37547 2.28943C8.68495 1.93571 8.68495 1.36015 8.37547 1.0064C8.29538 0.914867 8.16553 0.914836 8.08546 1.0064C8.00535 1.09793 8.00535 1.2463 8.08544 1.33784C8.23504 1.5088 8.23504 1.78699 8.08544 1.95796C7.77596 2.31168 7.77596 2.88727 8.08544 3.24099ZM5.6245 3.24099C5.70459 3.33252 5.83442 3.33249 5.91451 3.24099C5.99463 3.14946 5.99462 3.00109 5.91454 2.90955C5.76494 2.73859 5.76494 2.4604 5.91454 2.28943C6.22401 1.93571 6.22401 1.36015 5.91454 1.0064C5.83444 0.914867 5.70459 0.914836 5.62453 1.0064C5.54441 1.09793 5.54441 1.2463 5.6245 1.33784C5.7741 1.5088 5.7741 1.78699 5.6245 1.95796C5.31502 2.31168 5.31502 2.88727 5.6245 3.24099ZM3.68197 8.1829C3.77089 8.28452 3.89143 8.33321 4.02968 8.33321C4.30268 8.33321 4.64472 8.1433 4.9484 7.79621C5.14549 7.57096 5.29473 7.31277 5.36859 7.06918C5.45962 6.76899 5.43058 6.51315 5.28678 6.34884C5.02225 6.04655 4.47781 6.21271 4.02035 6.73555H4.02038C3.82329 6.9608 3.67404 7.21899 3.60019 7.46259C3.50913 7.76274 3.53817 8.01859 3.68197 8.1829ZM3.9877 7.61602C4.04089 7.44065 4.15849 7.24052 4.31036 7.06696H4.31039C4.57912 6.7598 4.82822 6.66396 4.9402 6.66396C4.9683 6.66396 4.98777 6.66999 4.99674 6.68024C5.01022 6.69565 5.02414 6.77346 4.98105 6.91565C4.92786 7.09102 4.81026 7.29115 4.65836 7.46471C4.32214 7.84896 4.01674 7.90249 3.97198 7.8514C3.95853 7.83602 3.94461 7.75821 3.9877 7.61602ZM6.34375 7.26587C6.34375 8.00521 6.62586 8.56274 7 8.56274C7.37414 8.56274 7.65625 8.00521 7.65625 7.26587C7.65625 6.52652 7.37414 5.96899 7 5.96899C6.62586 5.96899 6.34375 6.52652 6.34375 7.26587ZM7.24609 7.26587C7.24609 7.80924 7.06322 8.09399 7 8.09399C6.93678 8.09399 6.75391 7.80924 6.75391 7.26587C6.75391 6.72249 6.93678 6.43774 7 6.43774C7.06322 6.43774 7.24609 6.72249 7.24609 7.26587ZM8.60382 6.34884C8.46005 6.51315 8.43101 6.76896 8.52203 7.06918C8.59589 7.31277 8.74513 7.57096 8.9422 7.79621C9.24591 8.1433 9.58789 8.33324 9.86095 8.33321C9.99917 8.33321 10.1198 8.28449 10.2087 8.1829C10.3525 8.01859 10.3815 7.76277 10.2905 7.46255C10.2166 7.21896 10.0674 6.96077 9.8703 6.73552C9.41284 6.21271 8.86845 6.04652 8.60382 6.34884ZM9.58027 7.06699C9.73213 7.24055 9.84971 7.44068 9.90292 7.61605C9.94602 7.75821 9.9321 7.83605 9.91864 7.85143C9.87383 7.90262 9.56843 7.84896 9.23221 7.46474C9.08034 7.29118 8.96276 7.09105 8.90955 6.91568C8.86646 6.77352 8.88037 6.69568 8.89383 6.6803C8.90282 6.67002 8.92229 6.66399 8.9504 6.66399C9.06243 6.66399 9.31153 6.75984 9.58027 7.06699C9.58024 7.06699 9.58024 7.06699 9.58027 7.06699Z" fill="black"/>
</svg>
