<svg width="14" height="16" viewBox="0 0 14 16" fill="none" xmlns="http://www.w3.org/2000/svg">
<path d="M9.17594 4.28837C9.13077 3.86408 8.95125 3.47336 8.67127 3.18996C8.3913 2.90656 8.03023 2.7501 7.65623 2.7501C7.28223 2.7501 6.92117 2.90656 6.6412 3.18996C6.36122 3.47336 6.1817 3.86408 6.13652 4.28837C5.98865 4.34462 5.86311 4.45918 5.78239 4.61154C5.70166 4.7639 5.67102 4.94413 5.69595 5.11995C5.72088 5.29577 5.79974 5.45572 5.91843 5.57116C6.03712 5.6866 6.18788 5.75 6.34373 5.75C6.41644 5.75 7.22204 6.25 7.65623 6.25C8.09043 6.25 8.89603 5.75 8.96873 5.75C9.12459 5.75 9.27535 5.6866 9.39404 5.57116C9.51273 5.45572 9.59159 5.29577 9.61652 5.11995C9.64144 4.94413 9.6108 4.7639 9.53008 4.61154C9.44936 4.45918 9.32382 4.34462 9.17594 4.28837Z" fill="#ED8989"/>
<path d="M7.65625 13.25L5.6875 5.75H9.625L7.65625 13.25Z" fill="#A36F58"/>
<path d="M5.90625 9.25H13.3438V13.25H5.90625V9.25Z" fill="#ED6F6D"/>
<path d="M5.90625 10.5H13.3438V12H5.90625V10.5Z" fill="#EB423F"/>
<path d="M11.5938 8.25C11.9562 8.25 12.25 7.91421 12.25 7.5C12.25 7.08579 11.9562 6.75 11.5938 6.75C11.2313 6.75 10.9375 7.08579 10.9375 7.5C10.9375 7.91421 11.2313 8.25 11.5938 8.25Z" fill="#C7312E"/>
<path d="M12.4688 8.25H5.90625V9.25H12.4688V13.25H13.3438V9.25V8.25H12.4688Z" fill="#FFC9C9"/>
<path d="M1.09375 10.75V11.25L1.4484 12.8713C1.47206 12.9795 1.52669 13.0755 1.60359 13.1441C1.6805 13.2127 1.77526 13.25 1.87283 13.25H7.31467C7.41224 13.25 7.507 13.2127 7.58391 13.1441C7.66081 13.0755 7.71544 12.9795 7.7391 12.8713L8.09375 11.25V10.75H1.09375Z" fill="#A36F58"/>
<path d="M8.09375 9.60356C8.37334 9.94687 8.53125 10.3368 8.53125 10.75V11C8.53125 11.2762 8.23744 11.5 7.875 11.5C7.51256 11.5 7.21875 11.2762 7.21875 11C7.21875 11.2762 6.92494 11.5 6.5625 11.5C6.20006 11.5 5.90625 11.2762 5.90625 11C5.90625 11.2762 5.61244 11.5 5.25 11.5C4.88756 11.5 4.59375 11.2762 4.59375 11C4.59375 11.2762 4.29994 11.5 3.9375 11.5C3.57506 11.5 3.28125 11.2762 3.28125 11C3.28125 11.2762 2.98744 11.5 2.625 11.5C2.26256 11.5 1.96875 11.2762 1.96875 11C1.96875 11.2762 1.67494 11.5 1.3125 11.5C0.950059 11.5 0.65625 11.2762 0.65625 11V10.75C0.65625 10.3368 0.81416 9.94687 1.09375 9.60356V9.5C1.09375 7.98125 3.5 7.5 4.59375 7.5C5.6875 7.5 8.09375 7.98125 8.09375 9.5V9.60356Z" fill="#FFB632"/>
<path d="M13.3438 8H12.3512C12.4195 7.86516 12.4593 7.71393 12.4673 7.55838C12.4754 7.40284 12.4515 7.24729 12.3976 7.10419C12.3436 6.96108 12.2611 6.83438 12.1567 6.73422C12.0523 6.63405 11.9288 6.56319 11.7961 6.52731C11.781 6.40272 11.7543 6.28033 11.7165 6.16222C11.5764 5.73515 11.2998 5.5 10.9375 5.5C10.8795 5.5 10.8238 5.52634 10.7828 5.57322C10.7418 5.62011 10.7188 5.68369 10.7188 5.75C10.7188 5.8163 10.7418 5.87989 10.7828 5.92678C10.8238 5.97366 10.8795 6 10.9375 6C11.0469 6 11.2039 6.034 11.3037 6.32812C11.3262 6.39627 11.3433 6.46665 11.3546 6.53837C11.2265 6.57984 11.1084 6.65419 11.0093 6.75574C10.9102 6.8573 10.8327 6.98338 10.7827 7.12437C10.7328 7.26537 10.7116 7.41754 10.7209 7.56929C10.7302 7.72104 10.7698 7.86836 10.8365 8H9.26278L9.83453 5.82187C9.84987 5.76381 9.84614 5.70135 9.82405 5.6462C9.80196 5.59106 9.76303 5.54702 9.71455 5.52234C9.77736 5.40543 9.81843 5.27499 9.83521 5.13915C9.85199 5.0033 9.84411 4.86497 9.81208 4.73275C9.78004 4.60054 9.72453 4.47728 9.649 4.37065C9.57347 4.26402 9.47954 4.17631 9.37305 4.11297C9.29467 3.65845 9.08063 3.24913 8.76751 2.95493C8.45439 2.66072 8.06161 2.49989 7.65625 2.49989C7.25089 2.49989 6.85811 2.66072 6.54499 2.95493C6.23187 3.24913 6.01783 3.65845 5.93945 4.11297C5.83296 4.17631 5.73903 4.26402 5.6635 4.37065C5.58797 4.47728 5.53246 4.60054 5.50042 4.73275C5.46839 4.86497 5.46051 5.0033 5.47729 5.13915C5.49407 5.27499 5.53514 5.40543 5.59795 5.52234C5.54947 5.54702 5.51054 5.59106 5.48845 5.6462C5.46636 5.70135 5.46263 5.76381 5.47796 5.82187L5.89332 7.40416C5.46515 7.30758 5.03015 7.25598 4.59375 7.25C4.05199 7.25 3.14141 7.36675 2.35812 7.69581C1.1323 8.21078 0.875 8.96119 0.875 9.5V9.50806C0.588438 9.88837 0.4375 10.3159 0.4375 10.75V11C0.4375 11.314 0.65182 11.5772 0.964605 11.6903L1.23618 12.9319C1.27154 13.0943 1.35344 13.2384 1.46883 13.3414C1.58421 13.4443 1.72644 13.5002 1.87283 13.5H13.3438C13.4018 13.5 13.4574 13.4737 13.4984 13.4268C13.5395 13.3799 13.5625 13.3163 13.5625 13.25V8.25C13.5625 8.18369 13.5395 8.12011 13.4984 8.07322C13.4574 8.02634 13.4018 8 13.3438 8ZM11.5938 7C11.6803 7 11.7649 7.02932 11.8368 7.08426C11.9088 7.1392 11.9648 7.21729 11.9979 7.30866C12.0311 7.40002 12.0397 7.50055 12.0228 7.59754C12.006 7.69453 11.9643 7.78363 11.9031 7.85355C11.8419 7.92348 11.764 7.9711 11.6791 7.99039C11.5942 8.00968 11.5063 7.99978 11.4263 7.96194C11.3464 7.92409 11.2781 7.86001 11.23 7.77778C11.1819 7.69556 11.1562 7.59889 11.1562 7.5C11.1564 7.36744 11.2025 7.24035 11.2845 7.14662C11.3666 7.05289 11.4778 7.00016 11.5938 7ZM9.19975 6.5H7.65625C7.61254 6.49999 7.56983 6.51494 7.53363 6.54293C7.49743 6.57092 7.46939 6.61066 7.45314 6.65703L7.05392 7.79784C6.98283 7.76291 6.908 7.72885 6.82943 7.69569C6.68451 7.63475 6.53494 7.58112 6.38433 7.53416L6.24403 7H6.5625C6.62052 7 6.67616 6.97366 6.71718 6.92678C6.7582 6.87989 6.78125 6.8163 6.78125 6.75C6.78125 6.68369 6.7582 6.62011 6.71718 6.57322C6.67616 6.52634 6.62052 6.5 6.5625 6.5H6.125C6.12093 6.5 6.11696 6.50044 6.11294 6.50069L5.9815 6H9.33111L9.19975 6.5ZM8.24332 7.73719C8.27057 7.74757 8.29935 7.75172 8.32801 7.74939C8.35667 7.74707 8.38464 7.73831 8.41034 7.72363C8.43603 7.70894 8.45895 7.68862 8.47777 7.66382C8.49659 7.63901 8.51096 7.61021 8.52004 7.57906L8.68894 7H9.0685L8.806 8H7.45434L7.80434 7H8.22773L8.10496 7.42094C8.09587 7.45208 8.09225 7.48497 8.09428 7.51772C8.09632 7.55047 8.10398 7.58245 8.11682 7.61181C8.12967 7.64118 8.14746 7.66737 8.16916 7.68888C8.19087 7.71039 8.21606 7.72681 8.24332 7.73719ZM6.20558 4.52559C6.24492 4.51064 6.27972 4.48322 6.30595 4.44652C6.33217 4.40983 6.34873 4.36538 6.3537 4.31834C6.39246 3.9547 6.54633 3.61985 6.7863 3.37698C7.02626 3.13411 7.33571 3.00002 7.65625 3.00002C7.97679 3.00002 8.28624 3.13411 8.5262 3.37698C8.76617 3.61985 8.92004 3.9547 8.9588 4.31834C8.96377 4.36538 8.98033 4.40983 9.00655 4.44652C9.03277 4.48322 9.06758 4.51064 9.10692 4.52559C9.2055 4.5631 9.28918 4.63947 9.34299 4.74105C9.3968 4.84262 9.41722 4.96277 9.4006 5.07998C9.38398 5.19719 9.33141 5.30382 9.25228 5.38078C9.17316 5.45773 9.07265 5.5 8.96875 5.5H6.34375C6.23985 5.5 6.13934 5.45773 6.06022 5.38078C5.98109 5.30382 5.92852 5.19719 5.9119 5.07998C5.89528 4.96277 5.9157 4.84262 5.96951 4.74105C6.02332 4.63947 6.107 4.5631 6.20558 4.52559ZM7.52691 12.8106C7.51513 12.8647 7.48783 12.9128 7.44936 12.9471C7.41089 12.9814 7.36348 13.0001 7.31467 13H1.87283C1.82403 13.0001 1.77661 12.9814 1.73815 12.9471C1.69968 12.9128 1.67237 12.8647 1.66059 12.8106L1.42734 11.7437C1.64374 11.7205 1.83326 11.6321 1.96889 11.5012C2.12786 11.6547 2.36105 11.75 2.625 11.75C2.88895 11.75 3.12214 11.6547 3.28125 11.5011C3.44036 11.6547 3.67355 11.75 3.9375 11.75C4.20145 11.75 4.43464 11.6547 4.59375 11.5011C4.75286 11.6547 4.98605 11.75 5.25 11.75C5.51395 11.75 5.74714 11.6547 5.90625 11.5011C6.06536 11.6547 6.29855 11.75 6.5625 11.75C6.82645 11.75 7.05964 11.6547 7.21875 11.5011C7.35437 11.632 7.54387 11.7203 7.76029 11.7436L7.52691 12.8106ZM7.4375 11C7.4375 10.9337 7.41445 10.8701 7.37343 10.8232C7.33241 10.7763 7.27677 10.75 7.21875 10.75C7.16073 10.75 7.10509 10.7763 7.06407 10.8232C7.02305 10.8701 7 10.9337 7 11C7 11.1019 6.82957 11.25 6.5625 11.25C6.29543 11.25 6.125 11.1019 6.125 11C6.125 10.9337 6.10195 10.8701 6.06093 10.8232C6.01991 10.7763 5.96427 10.75 5.90625 10.75C5.84823 10.75 5.79259 10.7763 5.75157 10.8232C5.71055 10.8701 5.6875 10.9337 5.6875 11C5.6875 11.1019 5.51707 11.25 5.25 11.25C4.98293 11.25 4.8125 11.1019 4.8125 11C4.8125 10.9337 4.78945 10.8701 4.74843 10.8232C4.70741 10.7763 4.65177 10.75 4.59375 10.75C4.53573 10.75 4.48009 10.7763 4.43907 10.8232C4.39805 10.8701 4.375 10.9337 4.375 11C4.375 11.1019 4.20457 11.25 3.9375 11.25C3.67043 11.25 3.5 11.1019 3.5 11C3.5 10.9337 3.47695 10.8701 3.43593 10.8232C3.39491 10.7763 3.33927 10.75 3.28125 10.75C3.22323 10.75 3.16759 10.7763 3.12657 10.8232C3.08555 10.8701 3.0625 10.9337 3.0625 11C3.0625 11.1019 2.89207 11.25 2.625 11.25C2.35793 11.25 2.1875 11.1019 2.1875 11C2.1875 10.9337 2.16445 10.8701 2.12343 10.8232C2.08241 10.7763 2.02677 10.75 1.96875 10.75C1.91073 10.75 1.85509 10.7763 1.81407 10.8232C1.77305 10.8701 1.75 10.9337 1.75 11C1.75 11.1019 1.57957 11.25 1.3125 11.25C1.04543 11.25 0.875 11.1019 0.875 11V10.75C0.875 10.4111 1.00248 10.0827 1.25387 9.77391C1.29156 9.72764 1.3125 9.66677 1.3125 9.60356V9.5C1.3125 8.81216 1.96328 8.39444 2.50906 8.16509C3.2384 7.85872 4.08789 7.75 4.59375 7.75C5.09961 7.75 5.9491 7.85872 6.67844 8.16509C7.22422 8.39444 7.875 8.81216 7.875 9.5V9.60356C7.875 9.66677 7.89594 9.72764 7.93363 9.77391C8.18502 10.0827 8.3125 10.4111 8.3125 10.75V11C8.3125 11.1019 8.14207 11.25 7.875 11.25C7.60793 11.25 7.4375 11.1019 7.4375 11ZM12.25 13H7.93316C7.94002 12.9778 7.94623 12.9552 7.95132 12.9319L8.10048 12.25H12.25V13ZM12.25 11.75H8.20985L8.22289 11.6903C8.53568 11.5772 8.75 11.314 8.75 11V10.75H12.25V11.75ZM12.25 10.25H8.68243C8.60505 9.97626 8.47911 9.72369 8.3125 9.50806V9.5H12.25V10.25ZM13.125 13H12.6875V9.25C12.6875 9.18369 12.6645 9.12011 12.6234 9.07322C12.5824 9.02634 12.5268 9 12.4688 9H8.23386C8.17221 8.81579 8.08118 8.64625 7.9654 8.5H13.125V13Z" fill="black"/>
<path d="M3.86834 8.26281L3.21209 8.51281C3.18483 8.52319 3.15963 8.53961 3.13793 8.56112C3.11623 8.58263 3.09844 8.60882 3.0856 8.63819C3.05965 8.6975 3.05538 8.76616 3.07373 8.82906C3.09207 8.89197 3.13154 8.94397 3.18343 8.97362C3.23533 9.00328 3.2954 9.00816 3.35045 8.98719L4.0067 8.73719C4.03395 8.7268 4.05915 8.71039 4.08085 8.68888C4.10256 8.66736 4.12034 8.64118 4.13319 8.61181C4.14603 8.58244 4.15369 8.55047 4.15573 8.51772C4.15777 8.48497 4.15414 8.45208 4.14506 8.42094C4.13597 8.38979 4.12161 8.36099 4.10278 8.33619C4.08396 8.31138 4.06105 8.29106 4.03535 8.27638C4.00966 8.26169 3.98168 8.25294 3.95302 8.25061C3.92437 8.24828 3.89559 8.25243 3.86834 8.26281Z" fill="black"/>
<path d="M4.59375 8.75C4.53573 8.75 4.48009 8.77634 4.43907 8.82322C4.39805 8.87011 4.375 8.9337 4.375 9V9.5C4.375 9.5663 4.39805 9.62989 4.43907 9.67678C4.48009 9.72366 4.53573 9.75 4.59375 9.75C4.65177 9.75 4.70741 9.72366 4.74843 9.67678C4.78945 9.62989 4.8125 9.5663 4.8125 9.5V9C4.8125 8.9337 4.78945 8.87011 4.74843 8.82322C4.70741 8.77634 4.65177 8.75 4.59375 8.75Z" fill="black"/>
<path d="M5.97544 8.51281L5.31919 8.26281C5.26415 8.24184 5.20408 8.24672 5.15218 8.27638C5.10029 8.30603 5.06082 8.35803 5.04248 8.42094C5.02413 8.48384 5.0284 8.5525 5.05435 8.61181C5.08029 8.67112 5.12579 8.71622 5.18084 8.73719L5.83709 8.98719C5.86434 8.99757 5.89312 9.00172 5.92177 8.99939C5.95043 8.99706 5.9784 8.98831 6.0041 8.97362C6.0298 8.95894 6.05271 8.93861 6.07153 8.91381C6.09035 8.88901 6.10472 8.86021 6.1138 8.82906C6.12289 8.79791 6.12652 8.76503 6.12448 8.73228C6.12244 8.69953 6.11478 8.66755 6.10193 8.63819C6.08909 8.60882 6.0713 8.58263 6.0496 8.56112C6.0279 8.53961 6.0027 8.52319 5.97544 8.51281Z" fill="black"/>
<path d="M7.65625 4C7.77224 4.00016 7.88344 4.05289 7.96546 4.14662C8.04748 4.24035 8.09361 4.36744 8.09375 4.5C8.09375 4.5663 8.1168 4.62989 8.15782 4.67678C8.19884 4.72366 8.25448 4.75 8.3125 4.75C8.37052 4.75 8.42616 4.72366 8.46718 4.67678C8.5082 4.62989 8.53125 4.5663 8.53125 4.5C8.53099 4.23487 8.43872 3.98069 8.27468 3.79322C8.11064 3.60575 7.88823 3.5003 7.65625 3.5C7.59823 3.5 7.54259 3.52634 7.50157 3.57322C7.46055 3.62011 7.4375 3.6837 7.4375 3.75C7.4375 3.8163 7.46055 3.87989 7.50157 3.92678C7.54259 3.97366 7.59823 4 7.65625 4Z" fill="black"/>
</svg>
