<svg width="14" height="12" viewBox="0 0 14 12" fill="none" xmlns="http://www.w3.org/2000/svg">
<path d="M13.1576 7.44843L12.5003 9.05843L12.3318 9.47062C12.1525 9.90937 11.7672 10.1897 11.3436 10.1897H2.65651C2.23296 10.1897 1.84769 9.90937 1.66831 9.47062L1.49987 9.05843L0.842529 7.44843H13.1576Z" fill="#BE5E2E"/>
<path d="M2.20972 7.44843H0.842529L1.49987 9.05843C1.49993 9.05846 1.49998 9.05846 1.50001 9.0585L1.66831 9.47062C1.84769 9.90937 2.23296 10.1897 2.65651 10.1897H4.0237C3.60015 10.1897 3.21487 9.90937 3.0355 9.47062L2.89561 9.12803C3.26978 9.01568 3.51959 8.81615 3.69065 8.67968C3.73495 8.64406 3.78964 8.60031 3.80933 8.59C3.8137 8.58906 3.82956 8.58656 3.86292 8.58656C3.89655 8.58656 3.91214 8.58906 3.91679 8.59C3.93647 8.60062 3.99116 8.64406 4.03546 8.67968C4.28511 8.87906 4.70319 9.21312 5.43136 9.21312C6.15979 9.21312 6.57761 8.87906 6.82753 8.67937C6.87183 8.64406 6.92651 8.60031 6.9462 8.59C6.95058 8.58906 6.96644 8.58656 6.99979 8.58656C7.03343 8.58656 7.04901 8.58906 7.05366 8.59C7.07335 8.60031 7.12804 8.64406 7.17233 8.67968C7.42198 8.87906 7.84007 9.21312 8.56823 9.21312C9.29667 9.21312 9.71476 8.87906 9.9644 8.67968C10.0087 8.64406 10.0634 8.60031 10.0831 8.59C10.0875 8.58906 10.1033 8.58656 10.1367 8.58656C10.1703 8.58656 10.1862 8.58906 10.1908 8.59C10.2102 8.60031 10.2649 8.64406 10.3092 8.67968C10.5589 8.87906 10.9769 9.21312 11.7054 9.21312C12.0267 9.21312 12.2875 9.14812 12.5003 9.05843L13.1576 7.44843H2.20972Z" fill="#AC4F27"/>
<path d="M13.1576 7.44843H0.842529L1.33854 6.23406L1.66831 5.42625C1.84769 4.98781 2.23296 4.70718 2.65651 4.70718H11.3436C11.7672 4.70718 12.1525 4.98781 12.3318 5.42625L12.6616 6.23406L13.1576 7.44843Z" fill="#FFD88A"/>
<path d="M12.6616 6.23406C12.2935 6.34687 12.0469 6.54406 11.8776 6.67937C11.8336 6.71468 11.7789 6.75843 11.7592 6.76875C11.7546 6.76968 11.739 6.7725 11.7054 6.7725C11.6717 6.7725 11.6562 6.76968 11.6515 6.76875C11.6318 6.75843 11.5771 6.71468 11.5328 6.67937C11.2832 6.47968 10.8654 6.14562 10.1367 6.14562C9.40851 6.14562 8.99042 6.47968 8.74077 6.67937C8.69647 6.71468 8.64179 6.75843 8.6221 6.76875C8.61772 6.76968 8.60186 6.7725 8.56823 6.7725C8.5346 6.7725 8.51901 6.76968 8.51436 6.76875C8.49495 6.75843 8.44026 6.71468 8.39597 6.67937C8.14632 6.47968 7.72823 6.14562 6.99979 6.14562C6.27136 6.14562 5.85354 6.47968 5.6039 6.67937C5.5596 6.71468 5.50491 6.75843 5.48522 6.76875C5.48058 6.76968 5.46499 6.7725 5.43136 6.7725C5.398 6.7725 5.38214 6.76968 5.37776 6.76875C5.35808 6.75843 5.30339 6.71468 5.25909 6.67937C5.00944 6.47968 4.59136 6.14562 3.86292 6.14562C3.21066 6.14562 2.80734 6.41362 2.55086 6.61303L3.0355 5.42625C3.21487 4.98781 3.60015 4.70718 4.0237 4.70718H2.65651C2.23296 4.70718 1.84769 4.98781 1.66831 5.42625L0.842529 7.44843H2.20972H13.1576L12.6616 6.23406Z" fill="#FCCA7A"/>
<path d="M7.042 4.70734C7.52653 4.70734 7.91932 4.25843 7.91932 3.70468C7.91932 3.15093 7.52653 2.70203 7.042 2.70203C6.55746 2.70203 6.16467 3.15093 6.16467 3.70468C6.16467 4.25843 6.55746 4.70734 7.042 4.70734Z" fill="#FE636E"/>
<path d="M7.45229 4.59093C7.33006 4.6653 7.19034 4.70718 7.04213 4.70718C6.5576 4.70718 6.16467 4.25843 6.16467 3.70468C6.16467 3.15093 6.5576 2.70187 7.04213 2.70187C7.19034 2.70187 7.33006 2.74374 7.45229 2.81812C7.1742 2.98624 6.98499 3.3203 6.98499 3.70468C6.98499 4.08905 7.1742 4.42283 7.45229 4.59093Z" fill="#FD4755"/>
<path d="M11.7053 8.58809C11.1492 8.58809 10.8448 8.34493 10.6226 8.16731C10.451 8.03021 10.3649 7.9614 10.1368 7.9614C9.90868 7.9614 9.82254 8.03021 9.65102 8.16731C9.42879 8.34487 9.12446 8.58809 8.56826 8.58809C8.01206 8.58809 7.70772 8.3449 7.4855 8.16731C7.31395 8.03021 7.22784 7.9614 6.99979 7.9614C6.77175 7.9614 6.68564 8.03021 6.51411 8.16731C6.29192 8.34487 5.98758 8.58809 5.43141 8.58809C4.87524 8.58809 4.5709 8.3449 4.34868 8.16731C4.17713 8.03021 4.09102 7.9614 3.86297 7.9614C3.6349 7.9614 3.54879 8.03021 3.37727 8.16731C3.15504 8.34487 2.85071 8.58809 2.29451 8.58809C1.73836 8.58809 1.434 8.3449 1.21181 8.16731C1.04025 8.03021 0.954145 7.9614 0.726126 7.9614C0.438442 7.9614 0.2052 7.69484 0.2052 7.36606C0.2052 7.03728 0.438442 6.77071 0.726126 6.77071C1.28227 6.77071 1.58663 7.0139 1.80883 7.19149C1.98038 7.32859 2.06649 7.3974 2.29451 7.3974C2.52258 7.3974 2.60872 7.32859 2.78024 7.19149C3.00247 7.01393 3.3068 6.77071 3.86297 6.77071C4.41915 6.77071 4.72348 7.0139 4.9457 7.19149C5.11726 7.32859 5.20336 7.3974 5.43141 7.3974C5.65946 7.3974 5.74556 7.32859 5.91709 7.19149C6.13929 7.01393 6.44362 6.77071 6.99979 6.77071C7.55594 6.77071 7.8603 7.0139 8.08252 7.19149C8.25408 7.32859 8.34021 7.3974 8.56826 7.3974C8.7963 7.3974 8.88247 7.32859 9.05399 7.19149C9.27622 7.01393 9.58055 6.77071 10.1368 6.77071C10.6929 6.77071 10.9973 7.0139 11.2195 7.19149C11.3911 7.32859 11.4773 7.3974 11.7053 7.3974C11.9335 7.3974 12.0196 7.32859 12.1911 7.19149C12.4134 7.0139 12.7177 6.77071 13.2739 6.77071C13.5616 6.77071 13.7948 7.03728 13.7948 7.36606C13.7948 7.69484 13.5616 7.9614 13.2739 7.9614C13.0458 7.9614 12.9597 8.03021 12.7881 8.16731C12.5659 8.3449 12.2615 8.58809 11.7053 8.58809Z" fill="#FFC365"/>
<path d="M2.57906 8.16718C2.68652 8.25343 2.81285 8.35436 2.97801 8.43593C2.80191 8.52311 2.5818 8.58811 2.29441 8.58811C1.73824 8.58811 1.43391 8.34499 1.21187 8.16718C1.04016 8.0303 0.954023 7.96155 0.72625 7.96155C0.43832 7.96155 0.205078 7.69499 0.205078 7.36593C0.205078 7.03718 0.43832 6.77061 0.72625 6.77061C1.15691 6.77061 1.43637 6.91655 1.64391 7.06499C1.59824 7.15343 1.57227 7.25624 1.57227 7.36593C1.57227 7.69499 1.80551 7.96155 2.09344 7.96155C2.32121 7.96158 2.40734 8.0303 2.57906 8.16718Z" fill="#FEB14A"/>
<path d="M13.1219 11.3844H0.878157C0.506501 11.3844 0.2052 11.0401 0.2052 10.6153V10.1897H13.7948V10.6153C13.7948 11.0401 13.4935 11.3844 13.1219 11.3844Z" fill="#98E5FB"/>
<path d="M2.24547 11.3844H0.878281C0.506406 11.3844 0.205078 11.04 0.205078 10.6153V10.1897H1.57227V10.6153C1.57227 11.04 1.87359 11.3844 2.24547 11.3844Z" fill="#62DBFA"/>
<path d="M13.794 9.95534H12.2875C12.38 9.84302 12.4579 9.71346 12.5166 9.56974L13.0572 8.24612C13.12 8.20852 13.1749 8.19593 13.2728 8.19593C13.6732 8.19593 13.999 7.82362 13.999 7.36593C13.999 6.90843 13.6732 6.53624 13.2728 6.53624C13.1819 6.53624 13.097 6.54237 13.0172 6.55315L12.5166 5.32696C12.3042 4.80809 11.8434 4.4728 11.3426 4.4728H10.7749C10.6616 4.4728 10.5698 4.57771 10.5698 4.70718C10.5698 4.83665 10.6616 4.94155 10.7749 4.94155H11.3426C11.6849 4.94155 11.9998 5.17077 12.1449 5.52537L12.609 6.66202C12.3734 6.75927 12.204 6.89456 12.0727 6.99949C11.9113 7.12846 11.8679 7.16312 11.7043 7.16312C11.5407 7.16312 11.4974 7.12846 11.3358 6.9994C11.1051 6.81496 10.7565 6.53627 10.1358 6.53627C9.515 6.53627 9.16643 6.81493 8.93556 6.99946C8.67566 7.20709 8.458 7.20668 8.19829 6.99887C7.45627 6.40649 6.54184 6.40534 5.79869 6.99946C5.53911 7.20684 5.3214 7.20693 5.06194 6.9993C4.89656 6.86724 4.67007 6.6864 4.3274 6.5949C4.21737 6.56559 4.10685 6.64374 4.08104 6.76984C4.05528 6.89587 4.12377 7.0219 4.23411 7.0514C4.49989 7.12237 4.67368 7.26115 4.82705 7.38359C5.2231 7.70049 5.6378 7.6999 6.03393 7.38352C6.63844 6.90021 7.35785 6.89974 7.96396 7.38362C8.36009 7.70052 8.7747 7.69987 9.17088 7.38346C9.77518 6.90034 10.4952 6.89937 11.1009 7.38371C11.2814 7.52777 11.4116 7.6319 11.7043 7.6319C12.1714 7.6319 12.4979 7.15852 12.9427 7.0409C13.0401 7.01834 13.1492 7.00502 13.2728 7.00502C13.4471 7.00502 13.5889 7.16696 13.5889 7.36596C13.5889 7.56515 13.4471 7.72721 13.2728 7.72721C12.9802 7.72721 12.85 7.83115 12.6695 7.97521C12.0652 8.45859 11.3447 8.45962 10.7389 7.97509C10.3429 7.65899 9.92836 7.65905 9.53237 7.97521C8.92807 8.45859 8.20726 8.4598 7.60168 7.9748C7.20563 7.65905 6.7914 7.65912 6.39552 7.97521C5.79117 8.45862 5.07033 8.45977 4.46475 7.97471C4.06868 7.65906 3.6545 7.65918 3.25864 7.97521C2.65435 8.45859 1.93351 8.4598 1.32796 7.97474C1.14765 7.83102 1.01739 7.72721 0.725273 7.72721C0.550984 7.72721 0.40918 7.56515 0.40918 7.36596C0.40918 7.16696 0.550984 7.00502 0.725273 7.00502C0.849332 7.00502 0.958707 7.01849 1.05646 7.04124C1.05704 7.0414 1.05761 7.04155 1.05821 7.04171C1.3462 7.10915 1.53246 7.25765 1.69021 7.38359C2.08721 7.70127 2.50182 7.69927 2.89855 7.38231C3.04126 7.2684 3.203 7.13931 3.44084 7.06565C3.55016 7.03177 3.61474 6.90305 3.58513 6.77812C3.55546 6.65318 3.44283 6.57937 3.33354 6.61321C3.02671 6.70824 2.81688 6.87571 2.66184 6.99952C2.40191 7.20715 2.18425 7.20671 1.92454 6.99887C1.79348 6.89424 1.62425 6.75927 1.38896 6.66212L1.85301 5.52552C1.99818 5.17077 2.31315 4.94155 2.65547 4.94155H5.14175V5.61059C5.14175 5.74005 5.23355 5.84496 5.34683 5.84496C5.46012 5.84496 5.55191 5.74005 5.55191 5.61059V4.94155H6.79397V5.61059C6.79397 5.74005 6.88577 5.84496 6.99905 5.84496C7.11234 5.84496 7.20413 5.74005 7.20413 5.61059V4.94155H8.44616V5.61059C8.44616 5.74005 8.53796 5.84496 8.65124 5.84496C8.76453 5.84496 8.85632 5.74005 8.85632 5.61059V4.94155H9.88136C9.99464 4.94155 10.0864 4.83665 10.0864 4.70718C10.0864 4.57771 9.99464 4.4728 9.88136 4.4728H7.88854C8.03541 4.26162 8.12345 3.99474 8.12345 3.70465C8.12345 3.10249 7.74496 2.59974 7.24564 2.49009C7.24577 2.4864 7.24613 2.48277 7.24613 2.47902V1.66465C7.24613 1.21543 7.56591 0.84996 7.95898 0.84996H8.35705C8.47034 0.84996 8.56213 0.745054 8.56213 0.615585C8.56213 0.486117 8.47034 0.38121 8.35705 0.38121H7.95898C7.33975 0.38121 6.83597 0.95696 6.83597 1.66465V2.47902C6.83597 2.48274 6.8363 2.4864 6.83646 2.49009C6.33714 2.59974 5.95865 3.10249 5.95865 3.70465C5.95865 3.99474 6.0467 4.26162 6.19356 4.4728H2.6555C2.15464 4.4728 1.69382 4.80809 1.48141 5.32712L0.980801 6.55318C0.901066 6.54237 0.816164 6.53624 0.725273 6.53624C0.324824 6.53624 -0.000976562 6.90843 -0.000976562 7.36593C-0.000976562 7.82362 0.324824 8.19593 0.725273 8.19593C0.823137 8.19593 0.877988 8.20856 0.940961 8.24624L1.48146 9.56981C1.5402 9.71349 1.61807 9.84299 1.71052 9.95531H0.204129C0.0908437 9.95531 -0.000949219 10.0602 -0.000949219 10.1897V10.6153C-0.000949219 11.1686 0.393047 11.6187 0.877332 11.6187H13.1208C13.6051 11.6187 13.999 11.1686 13.999 10.6153V10.1897C13.999 10.0602 13.9073 9.95534 13.794 9.95534ZM6.3688 3.70465C6.3688 3.28099 6.67035 2.93637 7.04105 2.93637C7.41175 2.93637 7.7133 3.28099 7.7133 3.70465C7.7133 4.12668 7.41402 4.47021 7.04526 4.4728H7.03684C6.66808 4.47021 6.3688 4.12668 6.3688 3.70465ZM13.1208 11.15H0.877332C0.520086 11.15 0.378801 10.7621 0.409207 10.4241H6.55225C6.66554 10.4241 6.75733 10.3192 6.75733 10.1897C6.75733 10.0602 6.66554 9.95534 6.55225 9.95534H2.6555C2.3131 9.95534 1.9981 9.72612 1.85309 9.37149L1.56626 8.66912C2.21179 8.96821 2.93812 8.80374 3.49372 8.35927C3.75302 8.15231 3.97068 8.1523 4.23009 8.35909C4.97148 8.95287 5.88766 8.95352 6.63059 8.3593C6.88989 8.15227 7.10755 8.1523 7.36699 8.35909C8.1083 8.95287 9.02459 8.95355 9.76747 8.3593C10.0267 8.1523 10.2447 8.15218 10.504 8.35918C11.0578 8.80224 11.7899 8.96649 12.4319 8.6689L12.145 9.37137C12 9.72609 11.685 9.95531 11.3426 9.95531H7.44585C7.33256 9.95531 7.24077 10.0602 7.24077 10.1897C7.24077 10.3191 7.33256 10.4241 7.44585 10.4241H13.5889C13.5902 10.7871 13.5205 11.1508 13.1208 11.15Z" fill="black"/>
</svg>
