<svg width="14" height="16" viewBox="0 0 14 16" fill="none" xmlns="http://www.w3.org/2000/svg">
<path d="M10.9602 4.41213C9.82045 3.10957 8.33989 2.45627 7.54909 2.18033C7.21776 2.06473 6.8591 2.16573 6.61413 2.4457L1.62683 8.14547H11.4268C11.9423 8.14547 12.3602 8.62303 12.3602 9.21213C12.3602 9.21213 12.5935 6.2788 10.9602 4.41213Z" fill="#884D00"/>
<path d="M6.99351 7.2C7.76671 7.2 8.39351 6.48366 8.39351 5.6C8.39351 4.71634 7.76671 4 6.99351 4C6.22031 4 5.59351 4.71634 5.59351 5.6C5.59351 6.48366 6.22031 7.2 6.99351 7.2Z" fill="#FF0000"/>
<path d="M7.22692 5.06667H6.76026C6.76026 2.22813 5.45187 0.533333 3.26025 0.533333V0C5.70708 0 7.22692 1.9414 7.22692 5.06667Z" fill="#A6001E"/>
<path d="M12.3602 13.0667H1.62683V14.6667H12.3602V13.0667Z" fill="#CF9E76"/>
<path d="M5.12683 9.21214H3.72683V10.0121C3.72683 10.3067 3.51788 10.5455 3.26016 10.5455C3.00245 10.5455 2.7935 10.3067 2.7935 10.0121V9.21214H1.62683V11.3455H5.12683V9.21214Z" fill="#CF9E76"/>
<path d="M1.62683 15.7333H11.4268C11.9423 15.7333 12.3602 15.2558 12.3602 14.6667H1.62683V15.7333Z" fill="#884D00"/>
<path d="M6.06016 11.8788C6.06016 12.1733 5.85121 12.4121 5.5935 12.4121C5.33578 12.4121 5.12683 12.1733 5.12683 11.8788V11.3455H1.62683V13.0667H12.3602V11.3455H6.06016V11.8788Z" fill="#D4C8B8"/>
<path d="M11.4268 8.14547H1.62683V9.21214H2.7935V10.0121C2.7935 10.3067 3.00245 10.5455 3.26016 10.5455C3.51788 10.5455 3.72683 10.3067 3.72683 10.0121V9.21214H5.12683V11.3455V11.8788C5.12683 12.1733 5.33578 12.4121 5.5935 12.4121C5.85121 12.4121 6.06016 12.1733 6.06016 11.8788V11.3455V10.2788H6.52683C6.78455 10.2788 6.9935 10.04 6.9935 9.74547V9.21214H9.56016V9.74547C9.56016 10.1136 9.82132 10.4121 10.1435 10.4121C10.4657 10.4121 10.7268 10.1136 10.7268 9.74547V9.21214H12.3602C12.3602 8.62304 11.9423 8.14547 11.4268 8.14547Z" fill="#693B00"/>
<path d="M10.7268 9.74547C10.7268 10.1136 10.4657 10.4121 10.1435 10.4121C9.82134 10.4121 9.56018 10.1136 9.56018 9.74547V9.21214H6.99351V9.74547C6.99351 10.04 6.78456 10.2788 6.52685 10.2788H6.06018V11.3455H12.3602V9.21214H10.7268V9.74547Z" fill="#CF9E76"/>
<path d="M10.7301 6.9771C10.5182 5.52423 9.4504 4.76903 9.4397 4.76173L9.68032 4.3047C9.7316 4.33987 10.9422 5.1875 11.1904 6.8896L10.7301 6.9771Z" fill="white"/>
<path d="M8.75603 4.23724L8.96472 3.76022L8.49809 3.49357L8.28939 3.97059L8.75603 4.23724Z" fill="white"/>
<path d="M11.1252 4.2237C9.94738 2.8776 8.42182 2.206 7.61726 1.92553C7.2744 1.80577 6.90988 1.8746 6.62075 2.0987C5.96111 0.7618 4.79261 0 3.26022 0V0.533333C4.66008 0.533333 5.6973 1.22747 6.26567 2.46677L1.46221 7.9567C1.41983 8.00497 1.39355 8.0717 1.39355 8.1456V15.7333C1.39355 15.8807 1.49791 16 1.62689 16H11.4269C12.0702 16 12.5936 15.4018 12.5936 14.6667V9.22397C12.6102 8.99407 12.7833 6.11863 11.1252 4.2237ZM1.86022 14.4V13.3333H12.1269V14.4H1.86022ZM9.56022 8.94557H6.99356C6.86458 8.94557 6.76022 9.06483 6.76022 9.21223V9.74557C6.76022 9.8927 6.65563 10.0122 6.52689 10.0122H6.06022C5.93125 10.0122 5.82689 10.1315 5.82689 10.2789V11.8789C5.82689 12.026 5.7223 12.1456 5.59356 12.1456C5.46481 12.1456 5.36022 12.026 5.36022 11.8789V9.21223C5.36022 9.06483 5.25586 8.94557 5.12689 8.94557H3.72689C3.59791 8.94557 3.49356 9.06483 3.49356 9.21223V10.0122C3.49356 10.1594 3.38896 10.2789 3.26022 10.2789C3.13148 10.2789 3.02689 10.1594 3.02689 10.0122V9.21223C3.02689 9.06483 2.92253 8.94557 2.79355 8.94557H1.86022V8.41223H11.4269C11.7307 8.41223 11.9873 8.63583 12.0839 8.94557H10.7269C10.5979 8.94557 10.4936 9.06483 10.4936 9.21223V9.74557C10.4936 9.96613 10.3366 10.1456 10.1436 10.1456C9.95056 10.1456 9.79356 9.96613 9.79356 9.74557V9.21223C9.79356 9.06483 9.6892 8.94557 9.56022 8.94557ZM1.86022 9.4789H2.56022V10.0122C2.56022 10.4534 2.87423 10.8122 3.26022 10.8122C3.64621 10.8122 3.96022 10.4534 3.96022 10.0122V9.4789H4.89356V11.0789H1.86022V9.4789ZM1.86022 12.8V11.6122H4.89356V11.8789C4.89356 12.32 5.20756 12.6789 5.59356 12.6789C5.97955 12.6789 6.29356 12.32 6.29356 11.8789V11.6122H12.1269V12.8H1.86022ZM6.29356 11.0789V10.5456H6.52689C6.91288 10.5456 7.22689 10.1867 7.22689 9.74557V9.4789H9.32689V9.74557C9.32689 10.2602 9.69331 10.6789 10.1436 10.6789C10.5938 10.6789 10.9602 10.2601 10.9602 9.74557V9.4789H12.1269V11.0789H6.29356ZM6.76022 5.06667H7.22689C7.22689 4.79743 7.21158 4.54047 7.18938 4.2893C7.73926 4.39653 8.16022 4.9415 8.16022 5.6C8.16022 6.33517 7.63683 6.93333 6.99356 6.93333C6.35028 6.93333 5.82689 6.33517 5.82689 5.6C5.82689 4.97187 6.21023 4.44703 6.72274 4.3066C6.74514 4.55087 6.76022 4.80207 6.76022 5.06667ZM6.65414 3.77447C5.91602 3.95363 5.36025 4.70387 5.36025 5.6C5.36025 6.62917 6.09306 7.46667 6.99358 7.46667C7.89411 7.46667 8.62692 6.62917 8.62692 5.6C8.62692 4.62013 7.96221 3.81567 7.12136 3.74073C7.05437 3.32617 6.95663 2.93977 6.82669 2.58673C7.00735 2.41437 7.25229 2.3558 7.48099 2.4354C8.24387 2.70153 9.68899 3.3367 10.7953 4.60077C11.7374 5.67747 12.0254 7.15017 12.1072 8.13377C11.9152 7.9751 11.6814 7.8789 11.4269 7.8789H2.19015L6.46634 2.99163C6.54439 3.23637 6.60713 3.4974 6.65414 3.77447ZM11.4269 15.4667H1.86022V14.9333H12.0839C11.9873 15.2431 11.7307 15.4667 11.4269 15.4667Z" fill="black"/>
<path d="M6.99351 6.4V5.86666C6.56742 5.86666 6.52866 5.45703 6.52685 5.33123L6.29351 5.33333H6.06018C6.06018 5.76196 6.3088 6.4 6.99351 6.4Z" fill="white"/>
</svg>
