<svg width="28" height="27" viewBox="0 0 28 27" fill="none" xmlns="http://www.w3.org/2000/svg">
<path d="M18.9655 3.7928C20.2621 3.79664 21.5045 4.30926 22.4214 5.2187C23.3383 6.12815 23.8551 7.36051 23.8589 8.64666V18.3533C23.8551 19.6395 23.3383 20.8719 22.4214 21.7813C21.5045 22.6907 20.2621 23.2034 18.9655 23.2072H9.17965C7.88302 23.2034 6.6406 22.6907 5.72374 21.7813C4.80688 20.8719 4.29008 19.6395 4.28621 18.3533V8.64666C4.29008 7.36051 4.80688 6.12815 5.72374 5.2187C6.6406 4.30926 7.88302 3.79664 9.17965 3.7928H18.9655ZM18.9655 1.85156H9.17965C5.41179 1.85156 2.32915 4.90928 2.32915 8.64666V18.3533C2.32915 22.0907 5.41179 25.1484 9.17965 25.1484H18.9655C22.7333 25.1484 25.816 22.0907 25.816 18.3533V8.64666C25.816 4.90928 22.7333 1.85156 18.9655 1.85156Z" fill="white"/>
<path d="M20.4334 8.64649C20.1431 8.64649 19.8593 8.5611 19.6179 8.4011C19.3765 8.24111 19.1884 8.0137 19.0773 7.74764C18.9662 7.48158 18.9371 7.18882 18.9937 6.90637C19.0504 6.62392 19.1902 6.36448 19.3955 6.16084C19.6008 5.95721 19.8623 5.81854 20.1471 5.76235C20.4318 5.70617 20.727 5.73501 20.9952 5.84521C21.2634 5.95542 21.4927 6.14204 21.654 6.38149C21.8153 6.62094 21.9014 6.90245 21.9014 7.19043C21.9018 7.38176 21.8641 7.57129 21.7905 7.74813C21.7169 7.92497 21.6087 8.08565 21.4724 8.22094C21.336 8.35623 21.174 8.46346 20.9957 8.53649C20.8174 8.60952 20.6263 8.6469 20.4334 8.64649Z" fill="white"/>
<path d="M14.0726 9.61701C14.8468 9.61701 15.6037 9.84475 16.2474 10.2714C16.8912 10.6981 17.3929 11.3045 17.6892 12.014C17.9855 12.7236 18.063 13.5043 17.912 14.2575C17.761 15.0108 17.3881 15.7026 16.8406 16.2457C16.2932 16.7887 15.5956 17.1586 14.8363 17.3084C14.0769 17.4582 13.2898 17.3813 12.5745 17.0874C11.8592 16.7935 11.2478 16.2958 10.8177 15.6573C10.3875 15.0187 10.1579 14.268 10.1579 13.5C10.159 12.4705 10.5718 11.4835 11.3057 10.7555C12.0396 10.0276 13.0347 9.61812 14.0726 9.61701ZM14.0726 7.67578C12.9113 7.67578 11.776 8.01737 10.8104 8.65734C9.84483 9.29731 9.09224 10.2069 8.64783 11.2712C8.20341 12.3354 8.08713 13.5065 8.31369 14.6363C8.54025 15.766 9.09948 16.8038 9.92065 17.6183C10.7418 18.4329 11.7881 18.9876 12.9271 19.2123C14.0661 19.437 15.2467 19.3217 16.3196 18.8809C17.3925 18.4401 18.3095 17.6936 18.9547 16.7358C19.5999 15.778 19.9443 14.6519 19.9443 13.5C19.9443 11.9553 19.3257 10.4739 18.2245 9.38166C17.1233 8.2894 15.6298 7.67578 14.0726 7.67578Z" fill="white"/>
</svg>
