<svg width="35" height="33" viewBox="0 0 35 33" fill="none" xmlns="http://www.w3.org/2000/svg">
<g clip-path="url(#clip0)">
<path d="M33.4188 6.32565C32.4506 5.57655 31.0473 5.32513 29.1218 5.56115C26.4838 5.84899 23.7859 6.83361 20.8922 8.55244C20.506 8.39339 20.0872 8.30616 19.6412 8.30616H15.1701C14.7241 8.30616 14.3053 8.3939 13.9191 8.55244C11.0254 6.83361 8.32751 5.84848 5.6949 5.56115C3.76941 5.32513 2.36064 5.57655 1.39245 6.32565C0.565683 6.96701 0.0979067 7.96188 0 9.3272V17.4904C0.0979067 18.8193 0.560244 19.8147 1.38701 20.456C2.12675 21.0256 3.1167 21.3078 4.40036 21.3078C4.79743 21.3078 5.22713 21.2821 5.68947 21.2257C6.71205 21.1128 7.72919 20.8973 8.76265 20.5843C8.08818 22.2672 7.77814 23.6936 7.81078 25.002C7.81622 25.1657 7.90868 25.3196 8.05554 25.4068C8.2024 25.4997 8.3819 25.5151 8.54508 25.4535L11.8413 24.1857L13.5981 27.1051C13.6852 27.2488 13.8375 27.3411 14.0115 27.3565C14.0279 27.3565 14.0442 27.3617 14.0605 27.3617C14.2182 27.3617 14.3705 27.295 14.4684 27.177C16.0132 25.4222 16.8291 22.9235 17.4056 20.317C17.9822 22.9235 18.7981 25.4222 20.3428 27.177C20.4407 27.295 20.593 27.3617 20.7508 27.3617C20.7671 27.3617 20.7834 27.3565 20.7997 27.3565C20.9738 27.3411 21.1261 27.2488 21.2131 27.1051L22.97 24.1857L26.2662 25.4535C26.4294 25.5151 26.6089 25.4997 26.7557 25.4068C26.9026 25.3196 26.995 25.1657 27.0005 25.002C27.0331 23.6931 26.7231 22.2672 26.0486 20.5843C27.0821 20.8973 28.0938 21.1128 29.1164 21.2257C29.5787 21.2821 30.0084 21.3078 30.4109 21.3078C31.6946 21.3078 32.6845 21.0256 33.4242 20.456C34.251 19.8147 34.7134 18.8193 34.8113 17.454V9.29129C34.7134 7.96188 34.2456 6.96701 33.4188 6.32565ZM5.55892 20.2298C3.95978 20.4196 2.7849 20.2349 2.06148 19.6813C1.4686 19.2144 1.13681 18.475 1.06609 17.454L1.06066 9.35799C1.13681 8.30565 1.4686 7.56732 2.06692 7.10503C2.7849 6.54577 3.95978 6.36157 5.56436 6.55654C7.91956 6.81821 10.3455 7.67969 12.9509 9.16815C12.3743 9.70689 12.0153 10.456 12.0153 11.2821V15.4996C12.0153 16.3257 12.3743 17.0748 12.9509 17.6135C11.776 18.2857 10.6229 18.8449 9.50782 19.2605C9.50782 19.2605 9.50782 19.2605 9.50239 19.2605C8.15889 19.7685 6.86978 20.0866 5.55892 20.2298ZM14.1203 25.9409L12.5375 23.3083C12.4069 23.0877 12.1241 22.9907 11.8739 23.0877L8.89863 24.2318C8.9911 23.0415 9.38816 21.7018 10.1116 20.1061C11.3463 19.6289 12.6245 19.0035 13.9191 18.2287C14.2998 18.3878 14.7241 18.4745 15.1701 18.4745H16.6985C16.1709 21.2303 15.5073 24.0015 14.1203 25.9409ZM17.4763 17.4694C17.4709 17.4694 17.4655 17.475 17.46 17.475H17.3512C17.3458 17.475 17.3404 17.4694 17.3349 17.4694C17.3295 17.4694 17.3186 17.475 17.3132 17.475H15.1701C14.017 17.475 13.0814 16.5874 13.0814 15.4991V11.2815C13.0814 10.1938 14.017 9.3113 15.1701 9.3113H19.6412C20.7943 9.3113 21.7353 10.1938 21.7353 11.2815V15.4991C21.7353 16.5869 20.7943 17.475 19.6412 17.475H17.4981C17.4927 17.475 17.4818 17.4694 17.4763 17.4694ZM22.9374 23.0882C22.6871 22.9912 22.4043 23.0882 22.2738 23.3088L20.6909 25.9414C19.3039 24.002 18.6403 21.2308 18.1127 18.4755H19.6412C20.0872 18.4755 20.5114 18.3883 20.8976 18.2298C22.2031 19.0045 23.4758 19.6351 24.6997 20.1071C25.4231 21.7028 25.8202 23.0425 25.9126 24.2329L22.9374 23.0882ZM32.7498 19.6813C32.0264 20.2349 30.8515 20.4196 29.2469 20.2298C27.936 20.0866 26.6469 19.7685 25.3034 19.26C24.2047 18.8496 23.0461 18.2903 21.8604 17.613C22.4369 17.0743 22.7959 16.3252 22.7959 15.4991V11.2815C22.7959 10.4555 22.4369 9.70637 21.8604 9.16763C24.4658 7.67969 26.8917 6.8177 29.2523 6.55603C30.8515 6.36105 32.0264 6.54525 32.7443 7.10452C33.3427 7.56629 33.6745 8.30514 33.7452 9.32618L33.7506 17.4181C33.6745 18.475 33.3427 19.2144 32.7498 19.6813Z" fill="#34322D"/>
<path d="M21.7353 11.2823V15.4998C21.7353 16.5876 20.7943 17.4757 19.6412 17.4757H17.4981C17.4927 17.4757 17.4818 17.4701 17.4763 17.4701C17.4709 17.4701 17.4655 17.4757 17.46 17.4757H17.3512C17.3458 17.4757 17.3404 17.4701 17.3349 17.4701C17.3295 17.4701 17.3186 17.4757 17.3132 17.4757H15.1701C14.017 17.4757 13.0814 16.5881 13.0814 15.4998V11.2823C13.0814 10.1945 14.017 9.31201 15.1701 9.31201H19.6412C20.7943 9.31201 21.7353 10.1945 21.7353 11.2823Z" fill="#F1F1F1"/>
<path d="M25.9126 24.2326L22.9374 23.0884C22.6871 22.9915 22.4043 23.0884 22.2738 23.3091L20.6909 25.9417C19.3039 24.0022 18.6403 21.2311 18.1127 18.4758H19.6412C20.0872 18.4758 20.5114 18.3886 20.8976 18.23C22.2031 19.0048 23.4758 19.6354 24.6997 20.1074C25.4231 21.7026 25.8202 23.0423 25.9126 24.2326ZM16.6985 18.4753C16.1709 21.2306 15.5073 24.0017 14.1203 25.9412L12.5375 23.3086C12.4069 23.0879 12.1241 22.991 11.8739 23.0879L8.89862 24.2321C8.99109 23.0418 9.38815 21.7021 10.1116 20.1064C11.3463 19.6292 12.6245 19.0038 13.9191 18.229C14.2998 18.3881 14.7241 18.4748 15.1701 18.4748H16.6985V18.4753Z" fill="#F9CF7D"/>
<path d="M12.0153 15.4993C12.0153 16.3254 12.3743 17.0745 12.9509 17.6132C11.776 18.2854 10.6229 18.8446 9.50782 19.2602C9.50782 19.2602 9.50782 19.2602 9.50239 19.2602C8.15889 19.7682 6.86978 20.0863 5.55892 20.23C3.95978 20.4198 2.7849 20.2351 2.06148 19.6815C1.4686 19.2146 1.1368 18.4752 1.06609 17.4542L1.06065 9.35818C1.1368 8.30584 1.4686 7.56751 2.06692 7.10522C2.7849 6.54596 3.95978 6.36176 5.56436 6.55673C7.91956 6.81841 10.3455 7.67988 12.9509 9.16834C12.3743 9.70708 12.0153 10.4562 12.0153 11.2823V15.4993ZM33.7506 17.4188C33.6745 18.4757 33.3427 19.2146 32.7498 19.6815C32.0264 20.2351 30.8515 20.4198 29.2469 20.23C27.936 20.0868 26.6469 19.7687 25.3034 19.2602C24.2047 18.8498 23.0461 18.2905 21.8604 17.6132C22.4369 17.0745 22.7959 16.3254 22.7959 15.4993V11.2817C22.7959 10.4557 22.4369 9.70657 21.8604 9.16783C24.4658 7.67988 26.8917 6.81789 29.2523 6.55622C30.8515 6.36125 32.0264 6.54544 32.7443 7.10471C33.3427 7.56649 33.6745 8.30533 33.7452 9.32637L33.7506 17.4188Z" fill="#DDC086"/>
</g>
<defs>
<clipPath id="clip0">
<rect width="34.8113" height="32.8375" fill="white"/>
</clipPath>
</defs>
</svg>
