<svg width="14" height="16" viewBox="0 0 14 16" fill="none" xmlns="http://www.w3.org/2000/svg">
<path fill-rule="evenodd" clip-rule="evenodd" d="M5.49599 0.3125C5.21929 0.3125 4.78833 1.28513 4.78833 1.72181C4.78833 2.1585 5.10533 2.51284 5.49599 2.51284C5.88662 2.51284 6.20364 2.15853 6.20364 1.72181C6.20364 1.28509 5.77268 0.3125 5.49599 0.3125Z" fill="#FFE6B4"/>
<path fill-rule="evenodd" clip-rule="evenodd" d="M8.50404 0.3125C8.22735 0.3125 7.79639 1.28513 7.79639 1.72181C7.79639 2.1585 8.11262 2.51284 8.50404 2.51284C8.89468 2.51284 9.21093 2.15853 9.21093 1.72181C9.21093 1.28509 8.77997 0.3125 8.50404 0.3125Z" fill="#FFE6B4"/>
<path fill-rule="evenodd" clip-rule="evenodd" d="M8.50399 3.90356H5.49591H3.75663C3.40318 3.90356 3.11487 4.23397 3.11487 4.63791V5.63444H4.66425C4.90143 5.63444 5.09598 5.85678 5.09598 6.12872V7.06413C5.09598 7.43528 5.36184 7.73913 5.6866 7.73913C6.01136 7.73913 6.27723 7.43528 6.27723 7.06413V6.31031V6.15972V6.12872C6.27723 5.75756 6.54309 5.45372 6.86785 5.45372C7.19262 5.45372 7.45848 5.75756 7.45848 6.12872C7.45848 6.49988 7.72434 6.80372 8.0491 6.80372C8.37386 6.80372 8.63973 6.49988 8.63973 6.12872C8.63973 5.85678 8.83428 5.63444 9.07223 5.63444H10.8851V4.63791C10.8851 4.23397 10.596 3.90356 10.2426 3.90356H8.50399Z" fill="#FF7B79"/>
<path fill-rule="evenodd" clip-rule="evenodd" d="M7.45848 6.12872C7.45848 5.75756 7.19262 5.45372 6.86785 5.45372C6.54309 5.45372 6.27723 5.75756 6.27723 6.12872V7.06413C6.27723 7.43529 6.01136 7.73913 5.6866 7.73913C5.36184 7.73913 5.09598 7.43529 5.09598 7.06413V6.12872C5.09598 5.85678 4.90143 5.63444 4.66425 5.63444H3.11487V9.06254H10.8851V5.63444H9.07217C8.83422 5.63444 8.63967 5.85678 8.63967 6.12872C8.63967 6.49988 8.37381 6.80372 8.04905 6.80372C7.72431 6.80372 7.45848 6.49988 7.45848 6.12872Z" fill="#FFBDBC"/>
<path fill-rule="evenodd" clip-rule="evenodd" d="M10.8851 9.06253H3.11485H2.4878C2.10026 9.06253 1.78247 9.42481 1.78247 9.86862V11.0016L2.02739 11.3027C2.14986 11.4542 2.29943 11.5986 2.63272 11.5986C2.96602 11.5986 3.11561 11.4542 3.23806 11.3027L3.48298 11.0016C3.60545 10.851 3.75502 10.7066 4.08831 10.7066C4.42161 10.7066 4.5712 10.851 4.69365 11.0016L4.93857 11.3027C5.06104 11.4542 5.21061 11.5986 5.5439 11.5986C5.8772 11.5986 6.02679 11.4542 6.14924 11.3027L6.39416 11.0016C6.51663 10.851 6.66699 10.7066 6.99949 10.7066C7.33279 10.7066 7.48238 10.851 7.60483 11.0016L7.84975 11.3027C7.97222 11.4542 8.12258 11.5986 8.45508 11.5986C8.78838 11.5986 8.93795 11.4542 9.06121 11.3027L9.30536 11.0016C9.42784 10.851 9.5782 10.7066 9.9107 10.7066C10.244 10.7066 10.3936 10.851 10.5168 11.0016L10.761 11.3027C10.8835 11.4542 11.0338 11.5986 11.3671 11.5986C11.6996 11.5986 11.85 11.4542 11.9724 11.3027L12.2166 11.0016V9.86862C12.2166 9.42484 11.8996 9.06253 11.5121 9.06253H10.8851Z" fill="#FF7B79"/>
<path fill-rule="evenodd" clip-rule="evenodd" d="M4.13413 14.2215C3.76053 14.2215 3.45748 13.8751 3.45748 13.4473C3.45748 13.0203 3.76053 12.674 4.13413 12.674C4.50773 12.674 4.81078 13.0203 4.81078 13.4473C4.81078 13.8751 4.50773 14.2215 4.13413 14.2215ZM6.99962 14.2215C6.62602 14.2215 6.32297 13.8751 6.32297 13.4473C6.32297 13.0203 6.62602 12.674 6.99962 12.674C7.37321 12.674 7.67626 13.0203 7.67626 13.4473C7.67626 13.8751 7.37321 14.2215 6.99962 14.2215ZM8.45521 11.5986C8.12271 11.5986 7.97232 11.4542 7.84987 11.3027L7.60495 11.0015C7.48248 10.8509 7.33291 10.7066 6.99962 10.7066C6.66712 10.7066 6.51673 10.8509 6.39428 11.0015L6.14936 11.3027C6.02689 11.4542 5.87732 11.5986 5.54403 11.5986C5.21073 11.5986 5.06114 11.4542 4.93869 11.3027L4.69377 11.0015C4.5713 10.8509 4.42173 10.7066 4.08844 10.7066C3.75514 10.7066 3.60555 10.8509 3.4831 11.0015L3.23818 11.3027C3.11571 11.4542 2.96614 11.5986 2.63285 11.5986C2.29955 11.5986 2.14996 11.4542 2.02751 11.3027L1.78259 11.0015V14.2214H4.13421H6.9997H9.83883C9.47764 14.2055 9.1893 13.8653 9.1893 13.4481C9.1893 13.0212 9.49159 12.6748 9.86595 12.6748C10.2396 12.6748 10.5426 13.0212 10.5426 13.4481C10.5426 13.8653 10.2535 14.2055 9.89231 14.2214H12.2168V11.0016L11.9726 11.3027C11.8502 11.4542 11.6998 11.5986 11.3673 11.5986C11.034 11.5986 10.8836 11.4542 10.7612 11.3027L10.517 11.0016C10.3938 10.851 10.2442 10.7066 9.91088 10.7066C9.57838 10.7066 9.42799 10.851 9.30554 11.0016L9.06139 11.3027C8.9381 11.4542 8.7885 11.5986 8.45521 11.5986Z" fill="#FFBDBC"/>
<path fill-rule="evenodd" clip-rule="evenodd" d="M4.13417 12.674C3.76057 12.674 3.45752 13.0203 3.45752 13.4473C3.45752 13.8751 3.76057 14.2215 4.13417 14.2215C4.50776 14.2215 4.81082 13.8751 4.81082 13.4473C4.81082 13.0203 4.50776 12.674 4.13417 12.674Z" fill="#FF7B79"/>
<path fill-rule="evenodd" clip-rule="evenodd" d="M6.99965 12.674C6.62605 12.674 6.323 13.0203 6.323 13.4473C6.323 13.8751 6.62605 14.2215 6.99965 14.2215C7.37324 14.2215 7.67629 13.8751 7.67629 13.4473C7.67629 13.0203 7.37324 12.674 6.99965 12.674Z" fill="#FF7B79"/>
<path fill-rule="evenodd" clip-rule="evenodd" d="M9.86586 12.6749C9.49149 12.6749 9.18921 13.0212 9.18921 13.4482C9.18921 13.8654 9.47755 14.2056 9.83873 14.2215H9.89222C10.2534 14.2056 10.5425 13.8654 10.5425 13.4482C10.5425 13.0212 10.2395 12.6749 9.86586 12.6749Z" fill="#FF7B79"/>
<path fill-rule="evenodd" clip-rule="evenodd" d="M9.83871 14.2215H6.99958H4.13409H1.78247H1.03687L1.72204 15.6875H12.2771L12.9631 14.2215H12.2167H9.89222C9.88369 14.2215 9.87439 14.2215 9.86586 14.2215C9.85654 14.2215 9.84801 14.2215 9.83871 14.2215Z" fill="white"/>
<path d="M13.7266 13.909H12.4901V9.86862C12.4901 9.25184 12.0514 8.75003 11.5121 8.75003H11.1585V4.63791C11.1585 4.06066 10.7476 3.59106 10.2425 3.59106H8.77745V2.78134C9.18531 2.64775 9.48434 2.2235 9.48434 1.72184C9.48434 1.40859 9.33794 0.9905 9.20093 0.703656C8.97791 0.23675 8.74344 0 8.50404 0C8.26435 0 8.02966 0.236719 7.80648 0.703594C7.6694 0.990344 7.52295 1.40844 7.52295 1.72184C7.52295 2.22359 7.82231 2.64791 8.23061 2.78141V3.59106H5.76937V2.78141C6.17766 2.64787 6.47702 2.22356 6.47702 1.72184C6.47702 1.40844 6.33057 0.990344 6.1935 0.703594C5.97034 0.236719 5.73565 0 5.49596 0C5.25626 0 5.02157 0.236719 4.79842 0.703594C4.66134 0.990344 4.51486 1.40844 4.51486 1.72184C4.51486 2.22359 4.81422 2.64791 5.22252 2.78141V3.59106H3.75668C3.25202 3.59106 2.84145 4.06066 2.84145 4.63791V8.75003H2.48784C1.94816 8.75003 1.50907 9.25184 1.50907 9.86862V13.909H0.273438C0.122418 13.909 0 14.0489 0 14.2215C0 14.3941 0.122418 14.534 0.273438 14.534H0.872949L1.48088 15.8347C1.52843 15.9365 1.62116 16 1.72208 16H12.2772C12.3781 16 12.4707 15.9365 12.5183 15.8349L13.127 14.534H13.7266C13.8776 14.534 14 14.3941 14 14.2215C14 14.0489 13.8776 13.909 13.7266 13.909ZM8.06982 1.72184C8.06982 1.43403 8.34266 0.81275 8.50385 0.649219C8.66491 0.813094 8.9375 1.43437 8.9375 1.72184C8.9375 1.98569 8.74305 2.20034 8.50404 2.20034C8.26462 2.20034 8.06982 1.98569 8.06982 1.72184ZM5.06174 1.72184C5.06174 1.43391 5.33479 0.812281 5.49596 0.649C5.65712 0.812281 5.93018 1.43391 5.93018 1.72184C5.93018 1.98569 5.73538 2.20034 5.49596 2.20034C5.25654 2.20034 5.06174 1.98569 5.06174 1.72184ZM3.38833 4.63791C3.38833 4.40531 3.55357 4.21606 3.75668 4.21606H10.2426C10.4461 4.21606 10.6117 4.40531 10.6117 4.63791V5.32197H9.07219C8.68295 5.32197 8.36626 5.68388 8.36626 6.12872C8.36626 6.32859 8.22396 6.49122 8.04907 6.49122C7.87418 6.49122 7.73188 6.32863 7.73188 6.12872C7.73188 5.58422 7.34429 5.14122 6.86782 5.14122C6.39136 5.14122 6.00376 5.58422 6.00376 6.12872V7.06416C6.00376 7.26403 5.86146 7.42666 5.68657 7.42666C5.51168 7.42666 5.36938 7.26406 5.36938 7.06416V6.12872C5.36938 5.68388 5.05304 5.32197 4.66421 5.32197H3.38825V4.63791H3.38833ZM2.05595 9.86862C2.05595 9.59647 2.24968 9.37503 2.48784 9.37503H5.77188C5.9229 9.37503 6.04532 9.23509 6.04532 9.06253C6.04532 8.88997 5.9229 8.75003 5.77188 8.75003H3.38833V5.94697H4.6643C4.7501 5.94697 4.82259 6.03019 4.82259 6.12872V7.06416C4.82259 7.60866 5.21019 8.05166 5.68665 8.05166C6.16312 8.05166 6.55071 7.60866 6.55071 7.06416V6.12872C6.55071 5.92884 6.69301 5.76622 6.8679 5.76622C7.04279 5.76622 7.18509 5.92881 7.18509 6.12872C7.18509 6.67322 7.57269 7.11622 8.04915 7.11622C8.52562 7.11622 8.91321 6.67322 8.91321 6.12872C8.91321 6.03022 8.98606 5.94697 9.07227 5.94697H10.6118V8.75003H8.22743C8.07641 8.75003 7.954 8.88997 7.954 9.06253C7.954 9.23509 8.07641 9.37503 8.22743 9.37503H11.5122C11.75 9.37503 11.9434 9.59647 11.9434 9.86862V10.8791L11.7718 11.0907C11.6793 11.2051 11.5962 11.2861 11.3673 11.2861C11.1378 11.2861 11.0546 11.2051 10.9618 11.0904L10.7168 10.7881C10.5573 10.5933 10.3369 10.3941 9.91093 10.3941C9.48388 10.3941 9.26404 10.5937 9.105 10.7892L8.86118 11.09C8.76775 11.2048 8.68396 11.2861 8.45532 11.2861C8.2265 11.2861 8.14332 11.2051 8.05027 11.09L7.80533 10.7888C7.6466 10.5937 7.42675 10.3941 6.9997 10.3941C6.57264 10.3941 6.3528 10.5937 6.19407 10.7888L5.94858 11.0907C5.85607 11.2051 5.77292 11.2861 5.54411 11.2861C5.31527 11.2861 5.23212 11.2051 5.13907 11.09L4.89412 10.7888C4.73539 10.5937 4.51555 10.3941 4.08849 10.3941C3.66144 10.3941 3.44159 10.5937 3.28286 10.7888L3.0374 11.0907C2.94487 11.2051 2.86171 11.2861 2.6329 11.2861C2.40406 11.2861 2.32091 11.2051 2.22786 11.09L2.05609 10.8788V9.86862H2.05595ZM2.05595 11.7388C2.19453 11.8388 2.37598 11.9111 2.63279 11.9111C3.06086 11.9111 3.28054 11.7108 3.43842 11.5155L3.68334 11.2143C3.77628 11.1 3.85976 11.0191 4.08838 11.0191C4.317 11.0191 4.40048 11.1 4.49343 11.2143L4.7378 11.5148C4.8962 11.7107 5.11588 11.9111 5.54397 11.9111C5.97207 11.9111 6.19172 11.7107 6.34957 11.5155L6.59452 11.2143C6.68746 11.1 6.77094 11.0191 6.99956 11.0191C7.22818 11.0191 7.31166 11.1 7.40461 11.2143L7.649 11.5148C7.80743 11.7107 8.02711 11.9111 8.45518 11.9111C8.88218 11.9111 9.10243 11.7111 9.26188 11.5151L9.50573 11.2143C9.59867 11.1 9.68215 11.0191 9.91077 11.0191C10.1392 11.0191 10.2233 11.1003 10.3163 11.2139L10.5602 11.5148C10.7186 11.7107 10.9384 11.9111 11.3672 11.9111C11.6235 11.9111 11.8048 11.839 11.9432 11.7394V13.909H10.7258C10.7835 13.769 10.8159 13.6129 10.8159 13.4482C10.8159 12.8495 10.3897 12.3624 9.86582 12.3624C9.34194 12.3624 8.91573 12.8495 8.91573 13.4482C8.91573 13.6129 8.94813 13.769 9.0058 13.909H7.85939C7.91716 13.7688 7.94965 13.6123 7.94965 13.4473C7.94965 12.8486 7.52344 12.3615 6.99956 12.3615C6.47568 12.3615 6.04948 12.8486 6.04948 13.4473C6.04948 13.6123 6.08196 13.7688 6.13974 13.909H4.9939C5.05168 13.7688 5.08416 13.6123 5.08416 13.4473C5.08416 12.8486 4.65795 12.3615 4.13407 12.3615C3.6102 12.3615 3.18399 12.8486 3.18399 13.4473C3.18399 13.6123 3.21647 13.7688 3.27425 13.909H2.05595V11.7388ZM10.2691 13.4482C10.2691 13.7023 10.0882 13.909 9.86587 13.909C9.64354 13.909 9.46266 13.7023 9.46266 13.4482C9.46266 13.1941 9.64354 12.9874 9.86587 12.9874C10.0882 12.9874 10.2691 13.1941 10.2691 13.4482ZM7.40283 13.4473C7.40283 13.7018 7.22195 13.909 6.99962 13.909C6.77729 13.909 6.59641 13.7018 6.59641 13.4473C6.59641 13.1932 6.77729 12.9865 6.99962 12.9865C7.22195 12.9865 7.40283 13.1932 7.40283 13.4473ZM4.53734 13.4473C4.53734 13.7018 4.35646 13.909 4.13413 13.909C3.9118 13.909 3.73092 13.7018 3.73092 13.4473C3.73092 13.1932 3.9118 12.9865 4.13413 12.9865C4.35646 12.9865 4.53734 13.1932 4.53734 13.4473ZM12.1133 15.375H1.88601L1.49297 14.534H12.5068L12.1133 15.375Z" fill="black"/>
<path d="M6.99961 9.37503H7.00116C7.15218 9.37503 7.27384 9.23509 7.27384 9.06253C7.27384 8.88997 7.15065 8.75003 6.99963 8.75003C6.84861 8.75003 6.7262 8.88997 6.7262 9.06253C6.7262 9.23509 6.84859 9.37503 6.99961 9.37503Z" fill="black"/>
</svg>
