<svg width="20" height="21" viewBox="0 0 20 21" fill="none" xmlns="http://www.w3.org/2000/svg">
<path d="M5.51667 9.44125C6.71667 11.9175 8.65 13.9387 11.0083 15.2075L12.8417 13.2825C13.0667 13.0463 13.4 12.9675 13.6917 13.0725C14.625 13.3962 15.6333 13.5712 16.6667 13.5712C17.125 13.5712 17.5 13.965 17.5 14.4462V17.5C17.5 17.9812 17.125 18.375 16.6667 18.375C8.84167 18.375 2.5 11.7163 2.5 3.5C2.5 3.01875 2.875 2.625 3.33333 2.625H6.25C6.70833 2.625 7.08333 3.01875 7.08333 3.5C7.08333 4.59375 7.25 5.64375 7.55833 6.62375C7.65 6.93 7.58333 7.27125 7.35 7.51625L5.51667 9.44125Z" fill="#C19D56"/>
</svg>
