<svg width="74" height="97" viewBox="0 0 74 97" fill="none" xmlns="http://www.w3.org/2000/svg">
<path d="M36.7632 26.4031C41.2738 26.4031 44.8904 22.4427 44.8904 17.6021C44.8904 15.9299 44.484 14.3897 43.7119 13.0695L36.7632 0L29.8144 13.0695C29.0423 14.3897 28.636 15.9299 28.636 17.6021C28.636 22.4427 32.2932 26.4031 36.7632 26.4031ZM55.4557 70.3643L51.1077 65.6558L46.719 70.3643C41.4363 76.085 32.1713 76.129 26.848 70.3643L22.4999 65.6558L18.0706 70.3643C15.4293 73.2247 11.894 74.8089 8.15545 74.8089C5.18902 74.8089 2.46641 73.7967 0.190796 72.1245V92.4109C0.190796 94.8312 2.01941 96.8115 4.25439 96.8115H69.2719C71.5069 96.8115 73.3355 94.8312 73.3355 92.4109V72.1245C71.0599 73.7967 68.3373 74.8089 65.3709 74.8089C61.6324 74.8089 58.097 73.2247 55.4557 70.3643ZM61.1447 39.6047H40.8268V30.8036H32.6996V39.6047H12.3816C5.63602 39.6047 0.190796 45.5014 0.190796 52.8063V59.583C0.190796 64.3356 3.76676 68.2081 8.15545 68.2081C10.2685 68.2081 12.3003 67.328 13.7632 65.6998L22.4593 56.3267L31.1148 65.6998C34.1218 68.9562 39.3639 68.9562 42.3709 65.6998L51.067 56.3267L59.7225 65.6998C61.226 67.328 63.2172 68.2081 65.3303 68.2081C69.7189 68.2081 73.2949 64.3356 73.2949 59.583V52.8063C73.3355 45.5014 67.8903 39.6047 61.1447 39.6047Z" fill="#C19D56"/>
</svg>
