<svg viewBox="0 0 31 29" fill="none" xmlns="http://www.w3.org/2000/svg">
<path d="M15.5 7.25C16.9337 7.25 18.0833 6.1625 18.0833 4.83333C18.0833 4.37417 17.9542 3.95125 17.7087 3.58875L15.5 0L13.2912 3.58875C13.0458 3.95125 12.9167 4.37417 12.9167 4.83333C12.9167 6.1625 14.0792 7.25 15.5 7.25ZM21.4417 19.3213L20.0596 18.0283L18.6646 19.3213C16.9854 20.8921 14.0404 20.9042 12.3483 19.3213L10.9662 18.0283L9.55833 19.3213C8.71875 20.1067 7.595 20.5417 6.40667 20.5417C5.46375 20.5417 4.59833 20.2638 3.875 19.8046V25.375C3.875 26.0396 4.45625 26.5833 5.16667 26.5833H25.8333C26.5437 26.5833 27.125 26.0396 27.125 25.375V19.8046C26.4017 20.2638 25.5363 20.5417 24.5933 20.5417C23.405 20.5417 22.2812 20.1067 21.4417 19.3213ZM23.25 10.875H16.7917V8.45833H14.2083V10.875H7.75C5.60583 10.875 3.875 12.4942 3.875 14.5V16.3608C3.875 17.6658 5.01167 18.7292 6.40667 18.7292C7.07833 18.7292 7.72417 18.4875 8.18917 18.0404L10.9533 15.4667L13.7046 18.0404C14.6604 18.9346 16.3267 18.9346 17.2825 18.0404L20.0467 15.4667L22.7979 18.0404C23.2758 18.4875 23.9088 18.7292 24.5804 18.7292C25.9754 18.7292 27.1121 17.6658 27.1121 16.3608V14.5C27.125 12.4942 25.3942 10.875 23.25 10.875Z" fill="#C19D56"/>
</svg>
