<svg width="14" height="12" viewBox="0 0 14 12" fill="none" xmlns="http://www.w3.org/2000/svg">
<path d="M13.1219 10.9763H0.878157C0.506501 10.9763 0.2052 10.6319 0.2052 10.2072V9.78159H13.7948V10.2072C13.7948 10.632 13.4935 10.9763 13.1219 10.9763Z" fill="#98E5FB"/>
<path d="M1.57239 10.2072V9.78159H0.2052V10.2072C0.2052 10.6319 0.506501 10.9763 0.878157 10.9763H2.24535C1.87369 10.9763 1.57239 10.632 1.57239 10.2072Z" fill="#62DBFA"/>
<path d="M1.22327 5.40266H6.97273V9.78159H1.22327V5.40266Z" fill="#7E454D"/>
<path d="M1.22339 5.4025H2.59058V9.78156H1.22339V5.4025Z" fill="#683840"/>
<path d="M1.22327 5.40266V6C1.22327 6.32991 1.45727 6.59734 1.74594 6.59734H2.00366C2.29233 6.59734 2.52633 6.86478 2.52633 7.19469C2.52633 7.52459 2.76034 7.79203 3.04901 7.79203C3.33768 7.79203 3.57168 7.52459 3.57168 7.19469C3.57168 6.86478 3.80569 6.59734 4.09436 6.59734C4.38303 6.59734 4.61704 6.86478 4.61704 7.19469V8.38938C4.61704 8.71928 4.85104 8.98672 5.13971 8.98672C5.42838 8.98672 5.66239 8.71928 5.66239 8.38938V7.19469C5.66239 6.86478 5.8964 6.59734 6.18506 6.59734H6.45005C6.73872 6.59734 6.97273 6.32991 6.97273 6V5.40266H1.22327Z" fill="#E58758"/>
<path d="M3.22632 7.61719C3.2553 7.65031 3.28757 7.67937 3.32257 7.70375C3.243 7.76 3.14921 7.79219 3.04913 7.79219C2.90476 7.79219 2.77405 7.72531 2.67944 7.61719C2.58483 7.50906 2.52632 7.35969 2.52632 7.19469C2.52632 6.86469 2.29226 6.59719 2.00378 6.59719H1.74593C1.45718 6.59719 1.22339 6.33 1.22339 6V5.4025H1.77026V6C1.77026 6.33 2.00405 6.59719 2.2928 6.59719H2.55065C2.83913 6.59719 3.07319 6.86469 3.07319 7.19469C3.07319 7.35969 3.13171 7.50909 3.22632 7.61719Z" fill="#DF7246"/>
<path d="M5.41327 8.89844C5.3337 8.95469 5.23991 8.98688 5.13983 8.98688C4.85108 8.98688 4.61702 8.71938 4.61702 8.38938V7.19469C4.61702 7.02969 4.55851 6.88032 4.4639 6.77219C4.43491 6.73907 4.40292 6.71 4.36792 6.68563C4.44749 6.62938 4.54101 6.59719 4.64136 6.59719C4.78573 6.59719 4.91616 6.66407 5.01077 6.77219C5.10538 6.88032 5.1639 7.02969 5.1639 7.19469V8.38938C5.1639 8.60472 5.2637 8.79375 5.41327 8.89844Z" fill="#DF7246"/>
<path d="M2.29163 8.75491C2.17837 8.75491 2.08655 8.64997 2.08655 8.52053C2.08655 8.39109 2.17837 8.28616 2.29163 8.28616C2.40488 8.28616 2.4967 8.39109 2.4967 8.52053C2.4967 8.64997 2.40488 8.75491 2.29163 8.75491Z" fill="black"/>
<path d="M3.74207 8.75491C3.62881 8.75491 3.53699 8.64997 3.53699 8.52053C3.53699 8.39109 3.62881 8.28616 3.74207 8.28616C3.85532 8.28616 3.94714 8.39109 3.94714 8.52053C3.94714 8.64997 3.85532 8.75491 3.74207 8.75491Z" fill="black"/>
<path d="M4.09802 1.02375H9.84748V5.40269H4.09802V1.02375Z" fill="#7E454D"/>
<path d="M4.09802 1.02375H5.46521V5.4025H4.09802V1.02375Z" fill="#683840"/>
<path d="M4.09802 1.02375V1.62109C4.09802 1.951 4.33203 2.21844 4.6207 2.21844H4.87841C5.16708 2.21844 5.40109 2.48588 5.40109 2.81578C5.40109 3.14569 5.6351 3.41313 5.92376 3.41313C6.21243 3.41313 6.44644 3.14569 6.44644 2.81578C6.44644 2.48588 6.68045 2.21844 6.96912 2.21844C7.25778 2.21844 7.49179 2.48588 7.49179 2.81578V4.01047C7.49179 4.34038 7.7258 4.60781 8.01447 4.60781C8.30313 4.60781 8.53714 4.34038 8.53714 4.01047V2.81578C8.53714 2.48588 8.77115 2.21844 9.05982 2.21844H9.32481C9.61347 2.21844 9.84748 1.951 9.84748 1.62109V1.02375H4.09802Z" fill="#E58758"/>
<path d="M6.10095 3.23816C6.12994 3.27128 6.1622 3.30035 6.1972 3.32472C6.11763 3.38097 6.02412 3.41316 5.92377 3.41316C5.77939 3.41316 5.64869 3.34628 5.55408 3.23816C5.45947 3.13003 5.40095 2.98066 5.40095 2.81566C5.40095 2.48597 5.16716 2.21847 4.87841 2.21847H4.62056C4.33209 2.21847 4.09802 1.95097 4.09802 1.62097V1.02375H4.6449V1.62094C4.6449 1.95094 4.87896 2.21844 5.16744 2.21844H5.42529C5.71404 2.21844 5.94783 2.48594 5.94783 2.81563C5.94783 2.98063 6.00634 3.13 6.10095 3.23816Z" fill="#DF7246"/>
<path d="M8.2879 4.51941C8.20833 4.57566 8.11482 4.60784 8.01447 4.60784C7.72572 4.60784 7.49166 4.34034 7.49166 4.01034V2.81566C7.49166 2.65066 7.43314 2.50159 7.33853 2.39347C7.30982 2.36034 7.27755 2.33128 7.24255 2.30691C7.32212 2.25066 7.41564 2.21847 7.51599 2.21847C7.66037 2.21847 7.79107 2.28534 7.88541 2.39347C7.98001 2.50159 8.03853 2.65066 8.03853 2.81566V4.01034C8.03853 4.22562 8.13833 4.41472 8.2879 4.51941Z" fill="#DF7246"/>
<path d="M5.16638 4.37597C5.05312 4.37597 4.9613 4.27103 4.9613 4.14159C4.9613 4.01216 5.05312 3.90722 5.16638 3.90722C5.27964 3.90722 5.37146 4.01216 5.37146 4.14159C5.37146 4.27103 5.27964 4.37597 5.16638 4.37597Z" fill="black"/>
<path d="M6.61682 4.37597C6.50356 4.37597 6.41174 4.27103 6.41174 4.14159C6.41174 4.01216 6.50356 3.90722 6.61682 3.90722C6.73008 3.90722 6.8219 4.01216 6.8219 4.14159C6.8219 4.27103 6.73011 4.37597 6.61682 4.37597Z" fill="black"/>
<path d="M6.97266 5.40266H12.7221V9.78159H6.97266V5.40266Z" fill="#7E454D"/>
<path d="M6.97266 5.4025H8.33984V9.78156H6.97266V5.4025Z" fill="#683840"/>
<path d="M6.97266 5.40266V6C6.97266 6.32991 7.20666 6.59734 7.49533 6.59734H7.75305C8.04171 6.59734 8.27572 6.86478 8.27572 7.19469C8.27572 7.52459 8.50973 7.79203 8.7984 7.79203C9.08707 7.79203 9.32107 7.52459 9.32107 7.19469C9.32107 6.86478 9.55508 6.59734 9.84375 6.59734C10.1324 6.59734 10.3664 6.86478 10.3664 7.19469V8.38938C10.3664 8.71928 10.6004 8.98672 10.8891 8.98672C11.1778 8.98672 11.4118 8.71928 11.4118 8.38938V7.19469C11.4118 6.86478 11.6458 6.59734 11.9345 6.59734H12.1994C12.4881 6.59734 12.7221 6.32991 12.7221 6V5.40266H6.97266Z" fill="#E58758"/>
<path d="M8.97586 7.61719C9.00484 7.65031 9.03711 7.67937 9.07211 7.70375C8.99254 7.76 8.89875 7.79219 8.7984 7.79219C8.6543 7.79219 8.52359 7.72531 8.42898 7.61719C8.33438 7.50906 8.27586 7.35969 8.27586 7.19469C8.27586 6.86469 8.0418 6.59719 7.75305 6.59719H7.49547C7.20672 6.59719 6.97266 6.33 6.97266 6V5.4025H7.51953V6C7.51953 6.33 7.75359 6.59719 8.04234 6.59719H8.29992C8.58867 6.59719 8.82273 6.86469 8.82273 7.19469C8.82273 7.35969 8.88125 7.50909 8.97586 7.61719Z" fill="#DF7246"/>
<path d="M11.1628 8.89844C11.0832 8.95469 10.9895 8.98688 10.8891 8.98688C10.6006 8.98688 10.3666 8.71938 10.3666 8.38938V7.19469C10.3666 7.02969 10.308 6.88032 10.2134 6.77219C10.1845 6.73907 10.1522 6.71 10.1172 6.68563C10.1968 6.62938 10.2903 6.59719 10.3906 6.59719C10.535 6.59719 10.6657 6.66407 10.7603 6.77219C10.8549 6.88032 10.9134 7.02969 10.9134 7.19469V8.38938C10.9134 8.60472 11.0132 8.79375 11.1628 8.89844Z" fill="#DF7246"/>
<path d="M13.7949 9.54719H12.9272V5.40266C12.9272 5.27319 12.8355 5.16828 12.7222 5.16828H10.0524L10.0525 1.02372C10.0525 0.894251 9.96073 0.789345 9.84744 0.789345C9.84725 0.789345 9.84709 0.789376 9.84692 0.789376H8.48805C8.37476 0.789376 8.28297 0.894282 8.28297 1.02375C8.28297 1.15322 8.37476 1.25813 8.48805 1.25813H9.64223V1.62409C9.64078 1.82284 9.49897 1.98406 9.32477 1.98406H9.0598C8.65854 1.98406 8.33208 2.35716 8.33208 2.81578V4.01044C8.33208 4.21056 8.18959 4.37341 8.01448 4.37341C7.83937 4.37341 7.69688 4.21056 7.69688 4.01044V2.81578C7.69688 2.35716 7.37043 1.98406 6.96913 1.98406C6.56783 1.98406 6.24137 2.35716 6.24137 2.81578C6.24137 3.01591 6.09891 3.17875 5.9238 3.17875C5.7487 3.17875 5.60621 3.01591 5.60621 2.81578C5.60621 2.35716 5.27975 1.98406 4.87845 1.98406H4.62074C4.44579 1.98406 4.30344 1.82153 4.30317 1.62169V1.25813H7.59426C7.70755 1.25813 7.79934 1.15322 7.79934 1.02375C7.79934 0.894282 7.70755 0.789376 7.59426 0.789376H4.0985C4.09834 0.789376 4.09814 0.789345 4.09798 0.789345C3.9847 0.789345 3.8929 0.894251 3.8929 1.02372L3.89293 5.16813H1.22336C1.09575 5.18481 1.02733 5.263 1.01817 5.40266L1.01828 7.49219C1.01828 7.62166 1.11007 7.72656 1.22336 7.72656C1.33664 7.72656 1.42844 7.62166 1.42844 7.49219V6.74825C1.52444 6.80166 1.63218 6.83172 1.74593 6.83172H2.00364C2.17875 6.83172 2.32124 6.99456 2.32124 7.19469C2.32124 7.65328 2.6477 8.02638 3.04899 8.02638C3.45029 8.02638 3.77675 7.65328 3.77675 7.19466C3.77675 6.99453 3.91921 6.83172 4.09432 6.83172C4.26943 6.83172 4.41191 6.99453 4.41191 7.19466V8.38935C4.41191 8.84797 4.73837 9.22106 5.13967 9.22106C5.54096 9.22106 5.86742 8.84797 5.86742 8.38935V7.19466C5.86742 6.99453 6.00988 6.83172 6.18499 6.83172H6.44998C6.56376 6.83172 6.67149 6.80166 6.7675 6.74822V9.54716H1.42844V8.51341C1.42844 8.38394 1.33664 8.27903 1.22336 8.27903C1.11007 8.27903 1.01828 8.38394 1.01828 8.51341V9.54716H0.205078C0.091793 9.54716 0 9.65206 0 9.78153V10.2072C0 10.7605 0.393996 11.2106 0.878281 11.2106H9.04477C9.15805 11.2106 9.24984 11.1057 9.24984 10.9762C9.24984 10.8468 9.15805 10.7418 9.04477 10.7418H0.878281C0.521035 10.7418 0.37975 10.3539 0.410156 10.0159H13.5898C13.6202 10.3539 13.479 10.7418 13.1217 10.7418H9.93836C9.82507 10.7418 9.73328 10.8468 9.73328 10.9762C9.73328 11.1057 9.82507 11.2106 9.93836 11.2106H13.1217C13.606 11.2106 14 10.7605 14 10.2072V9.78153C14 9.65213 13.9082 9.54719 13.7949 9.54719ZM7.17779 9.54719V6.74822C7.27382 6.80169 7.38158 6.83175 7.49539 6.83175H7.7531C7.92821 6.83175 8.0707 6.9946 8.0707 7.19472C8.0707 7.65331 8.39716 8.02641 8.79845 8.02641C9.19972 8.02641 9.52618 7.65331 9.52618 7.19469C9.52618 6.99456 9.66867 6.83175 9.84378 6.83175C10.0189 6.83175 10.1614 6.99456 10.1614 7.19469V8.38938C10.1614 8.848 10.4878 9.2211 10.8891 9.2211C11.2904 9.2211 11.6169 8.848 11.6169 8.38938V7.19469C11.6169 6.99456 11.7593 6.83175 11.9345 6.83175H12.1994C12.3132 6.83175 12.421 6.80169 12.517 6.74822V9.54719H7.17779ZM12.5171 6C12.5171 6.20013 12.3746 6.36297 12.1995 6.36297H11.9345C11.5333 6.36297 11.2068 6.73606 11.2068 7.19466V8.38935C11.2068 8.58947 11.0643 8.75231 10.8892 8.75231C10.7141 8.75231 10.5716 8.58947 10.5716 8.38935V7.19466C10.5716 6.73606 10.2452 6.36297 9.84386 6.36297C9.44256 6.36297 9.11611 6.73606 9.11611 7.19469C9.11611 7.39481 8.97364 7.55763 8.79854 7.55763C8.62343 7.55763 8.48094 7.39478 8.48094 7.19466C8.48094 6.73606 8.15448 6.36297 7.75318 6.36297H7.49547C7.32036 6.36297 7.17787 6.20013 7.17787 6V5.63703H12.5172V6H12.5171ZM4.30309 2.36928C4.39912 2.42272 4.50685 2.45278 4.62066 2.45278H4.87837C5.05348 2.45278 5.19597 2.61563 5.19597 2.81575C5.19597 3.27438 5.52243 3.64747 5.92372 3.64747C6.32499 3.64747 6.65145 3.27438 6.65145 2.81575C6.65145 2.61563 6.79394 2.45278 6.96905 2.45278C7.14416 2.45278 7.28664 2.61563 7.28664 2.81575V4.01041C7.28664 4.46903 7.6131 4.84213 8.0144 4.84213C8.4157 4.84213 8.74215 4.46903 8.74215 4.01041V2.81575C8.74215 2.61563 8.88461 2.45278 9.05972 2.45278H9.32468C9.43843 2.45278 9.54617 2.42275 9.64215 2.36934V5.16813H4.30309V2.36928ZM6.45006 6.363H6.18507C5.7838 6.363 5.45735 6.7361 5.45735 7.19469V8.38938C5.45735 8.5895 5.31486 8.75235 5.13975 8.75235C4.96464 8.75235 4.82215 8.5895 4.82215 8.38938V7.19469C4.82215 6.7361 4.4957 6.363 4.0944 6.363C3.69313 6.363 3.36667 6.73609 3.36667 7.19472C3.36667 7.39485 3.22418 7.55766 3.04907 7.55766C2.87397 7.55766 2.73148 7.39481 2.73148 7.19469C2.73148 6.7361 2.40502 6.363 2.00372 6.363H1.74601C1.57161 6.363 1.42967 6.20147 1.42852 6.00244V5.63688H6.76758V6.00122C6.767 6.20081 6.62482 6.363 6.45006 6.363Z" fill="black"/>
<path d="M8.04114 8.75491C7.92788 8.75491 7.83606 8.64997 7.83606 8.52053C7.83606 8.39109 7.92788 8.28616 8.04114 8.28616C8.1544 8.28616 8.24622 8.39109 8.24622 8.52053C8.24622 8.64997 8.1544 8.75491 8.04114 8.75491Z" fill="black"/>
<path d="M9.49158 8.75491C9.37832 8.75491 9.2865 8.64997 9.2865 8.52053C9.2865 8.39109 9.37832 8.28616 9.49158 8.28616C9.60483 8.28616 9.69666 8.39109 9.69666 8.52053C9.69666 8.64997 9.60483 8.75491 9.49158 8.75491Z" fill="black"/>
</svg>
