<svg width="72" height="72" viewBox="0 0 72 72" fill="none" xmlns="http://www.w3.org/2000/svg">
<path d="M35.7895 0.237793L66.7841 53.4878H4.79488L35.7895 0.237793Z" fill="#C19D56"/>
<path d="M47.6053 36.3125C47.6053 30.1887 42.5947 25.2188 36.4211 25.2188C30.2474 25.2188 25.2368 30.1887 25.2368 36.3125C25.2368 41.6819 29.0842 46.1527 34.1842 47.1844V39.6406H31.9474V36.3125H34.1842V33.5391C34.1842 31.398 35.9401 29.6562 38.0987 29.6562H40.8947V32.9844H38.6579C38.0428 32.9844 37.5395 33.4836 37.5395 34.0938V36.3125H40.8947V39.6406H37.5395V47.3508C43.1875 46.7961 47.6053 42.0702 47.6053 36.3125Z" fill="#FFF8F8"/>
</svg>
