<svg width="14" height="16" viewBox="0 0 14 16" fill="none" xmlns="http://www.w3.org/2000/svg">
<path d="M0.25415 8.50262H6.94328V13.2948H0.25415V8.50262Z" fill="#F4DAB5"/>
<path d="M13.7722 10.9672C13.3022 12.4615 10.7462 13.1226 7.02319 13.3177V10.9672C10.5175 10.8303 12.8737 10.3967 13.7722 8.79928V10.9672Z" fill="#96B4EB"/>
<path d="M13.7722 13.2948C13.3022 14.7892 10.7462 15.4503 7.02319 15.6453V13.2948C10.5175 13.1579 12.8337 12.5874 13.7922 11.1726L13.7722 13.2948Z" fill="#D789B9"/>
<path d="M13.7722 11.3303V8.79928C13.4784 9.32159 13.0287 9.7194 12.4344 10.0232V12.1472C12.906 11.9427 13.3445 11.6456 13.7722 11.3303Z" fill="#8286EA"/>
<path d="M12.4022 12.4936C11.9526 13.6284 9.9324 14.1359 7.02319 14.2883V15.6453C10.7462 15.4503 13.3021 14.7891 13.7722 13.2948V11.6991C13.3358 12.0135 12.8865 12.3026 12.4022 12.4936Z" fill="#C668B9"/>
<path d="M6.99956 8.60609L0.273682 8.56678C0.33485 7.29565 3.35193 6.26159 6.99956 6.26159C10.6898 6.26159 13.7264 7.31993 13.7264 8.60609C13.7264 9.89224 10.6898 10.9506 6.99956 10.9506C6.98827 10.9506 6.977 10.9506 6.96571 10.9506L6.99956 8.60609Z" fill="white"/>
<path d="M5.49114 8.50262V10.7954C5.49114 11.4443 5.03083 11.9704 4.46301 11.9704H0.25415V13.2949H6.94328V8.50262H5.49114Z" fill="#DBA2B3"/>
<path d="M1.38435 10.4754C1.21031 10.4754 1.06873 10.3136 1.06873 10.1147V9.81944C1.06873 9.62053 1.21031 9.45872 1.38435 9.45872H5.83466C6.0087 9.45872 6.15029 9.62053 6.15029 9.81944V10.1147C6.15029 10.3136 6.0087 10.4754 5.83466 10.4754H1.38435Z" fill="#C1E5EF"/>
<path d="M5.83466 12.5863H1.38435C1.11942 12.5863 0.904663 12.3409 0.904663 12.0381V11.7428C0.904663 11.4401 1.11942 11.1946 1.38435 11.1946H5.83466C6.09959 11.1946 6.31435 11.4401 6.31435 11.7428V12.0381C6.31435 12.3409 6.09957 12.5863 5.83466 12.5863Z" fill="#E8C2D8"/>
<path d="M5.8343 11.1946H5.43016C5.28716 11.647 4.90817 11.9704 4.46304 11.9704H0.904663V12.0377C0.904663 12.3408 1.11961 12.5864 1.38474 12.5864H5.83428C6.09943 12.5864 6.31435 12.3407 6.31435 12.0377V11.7433C6.31438 11.4403 6.09943 11.1946 5.8343 11.1946Z" fill="#D392D8"/>
<path d="M5.83425 9.27122H5.49109V10.663H5.83425C6.09941 10.663 6.31433 10.4173 6.31433 10.1143V9.81991C6.31433 9.51685 6.09938 9.27122 5.83425 9.27122Z" fill="#A6AAED"/>
<path d="M11.8748 7.31412C11.5087 8.33315 10.7804 8.66836 10.1386 8.36727C9.49688 8.06618 9.1847 7.2428 9.55075 6.22377C9.9168 5.20474 11.1866 4.54677 11.4642 4.67702C11.7419 4.80727 12.2408 6.29505 11.8748 7.31412Z" fill="#FAF1A9"/>
<path d="M11.4643 4.677C11.4312 4.6615 11.3838 4.6575 11.3258 4.6636C11.5452 4.98194 11.8102 5.96663 11.5571 6.67109C11.2651 7.48422 10.6839 7.75169 10.1718 7.51144C9.70848 7.29406 9.46053 6.73556 9.63378 6.02897C9.60269 6.09231 9.57477 6.15722 9.55087 6.22375C9.18482 7.24278 9.49701 8.06616 10.1388 8.36725C10.7805 8.66834 11.5089 8.33316 11.8749 7.31409C12.2409 6.29503 11.742 4.80728 11.4643 4.677Z" fill="#DFB5A7"/>
<path d="M3.26652 6.34132C3.62874 7.34973 4.3495 7.68144 4.98455 7.38348C5.61964 7.08551 5.92854 6.27073 5.56632 5.26232C5.2041 4.25391 3.94757 3.60279 3.67282 3.73169C3.39807 3.8606 2.90429 5.33291 3.26652 6.34132Z" fill="#FAF1A9"/>
<path d="M5.56635 5.26232C5.20413 4.25391 3.9476 3.60279 3.67285 3.73169C3.64206 3.74613 3.60851 3.77757 3.57376 3.82319C3.92215 3.86526 4.73518 4.35929 4.99241 5.07541C5.28633 5.89366 5.03567 6.55479 4.52034 6.79654C4.04992 7.01726 3.5217 6.81188 3.20959 6.15198C3.22556 6.21654 3.24443 6.27979 3.26652 6.34132C3.62875 7.34973 4.3495 7.68144 4.98456 7.38348C5.61967 7.08551 5.92858 6.27073 5.56635 5.26232Z" fill="#DFB5A7"/>
<path d="M8.68623 6.74137C8.68508 6.72362 8.68325 6.70578 8.67983 6.68778C8.65801 5.99515 8.47385 5.39547 8.05268 4.93147C8.04218 4.1564 7.8622 3.55312 7.43269 3.19522C7.21577 2.33831 6.87944 1.42415 6.45952 0.469904C6.40699 0.32281 6.21499 0.370279 6.22035 0.52906C6.16872 1.38809 6.16539 2.18619 6.29776 2.813C6.11622 3.32306 6.1133 3.83722 6.35012 4.35806C6.20337 4.87393 6.19689 5.40993 6.40486 5.97306C6.18515 6.51518 6.34938 7.01043 6.40869 7.24506C6.6524 8.03234 8.73684 7.52893 8.68623 6.74137Z" fill="#F6E06E"/>
<path d="M8.68623 6.74138C8.68508 6.72363 8.68325 6.70578 8.67983 6.68778C8.66435 6.19588 8.56638 5.75119 8.36037 5.36838C8.38063 5.49525 8.39299 5.6265 8.3974 5.76219C8.4004 5.77757 8.40202 5.79278 8.40303 5.80791C8.4476 6.47988 6.61272 6.90941 6.39818 6.23766C6.38812 6.19903 6.37459 6.15203 6.36072 6.09813C6.21022 6.59035 6.35397 7.02863 6.40868 7.24507C6.6524 8.03235 8.73684 7.52894 8.68623 6.74138Z" fill="#DDA86A"/>
<path d="M1.98458 0.406655L2.21982 1.16259C2.22988 1.19497 2.24984 1.22059 2.275 1.23356L2.86267 1.53615C2.94568 1.5789 2.94568 1.73009 2.86267 1.77284L2.275 2.07544C2.24984 2.08837 2.22991 2.11403 2.21982 2.1464L1.98458 2.90234C1.95135 3.00915 1.8338 3.00915 1.80058 2.90234L1.56534 2.1464C1.55528 2.11403 1.53535 2.0884 1.51016 2.07544L0.922491 1.77284C0.839476 1.73009 0.839476 1.5789 0.922491 1.53615L1.51016 1.23356C1.53532 1.22059 1.55525 1.19497 1.56534 1.16259L1.80058 0.406655C1.83383 0.299873 1.95135 0.299873 1.98458 0.406655Z" fill="#E9C3D9"/>
<path d="M10.2027 0.996957L10.3772 1.55771C10.3846 1.58171 10.3994 1.60074 10.4181 1.61036L10.854 1.83483C10.9156 1.86655 10.9156 1.97868 10.854 2.01039L10.4181 2.23486C10.3994 2.24449 10.3847 2.26349 10.3772 2.28752L10.2027 2.84827C10.178 2.92749 10.0908 2.92749 10.0662 2.84827L9.89168 2.28749C9.88422 2.26349 9.86943 2.24446 9.85075 2.23483L9.41484 2.01036C9.35326 1.97864 9.35326 1.86652 9.41484 1.8348L9.85075 1.61033C9.86943 1.60071 9.88422 1.58171 9.89168 1.55768L10.0662 0.996925C10.0908 0.917707 10.178 0.917707 10.2027 0.996957Z" fill="#E9C3D9"/>
<path d="M12.6681 3.5395C12.7905 3.5395 12.8897 3.42613 12.8897 3.28628C12.8897 3.14644 12.7905 3.03307 12.6681 3.03307C12.5457 3.03307 12.4465 3.14644 12.4465 3.28628C12.4465 3.42613 12.5457 3.5395 12.6681 3.5395Z" fill="#D88ABA"/>
<path d="M4.58647 1.39387C4.58647 1.53372 4.48727 1.64712 4.36488 1.64712C4.24251 1.64712 4.14331 1.53375 4.14331 1.39387C4.14331 1.254 4.24251 1.14066 4.36488 1.14066C4.48727 1.14066 4.58647 1.25403 4.58647 1.39387Z" fill="#D88ABA"/>
<path d="M14 8.60609C14 7.90781 13.4011 7.29481 12.262 6.81878C12.3107 6.32959 12.2379 5.86547 12.1763 5.58584C12.1388 5.41581 11.9333 4.55897 11.5682 4.38769C11.2032 4.21653 10.5301 4.66106 10.3989 4.75194C10.0953 4.96219 9.55159 5.41459 9.30333 6.08997C9.16508 6.07247 9.02527 6.0565 8.88393 6.04219C8.78954 5.55606 8.60207 5.13953 8.32246 4.79884C8.29153 3.99272 8.07259 3.39212 7.67017 3.01087C7.45965 2.20691 7.14446 1.33125 6.70759 0.337624C6.63007 0.138655 6.44804 0.0326242 6.26033 0.0790929C6.07417 0.125124 5.94738 0.304874 5.94656 0.520218C5.88692 1.521 5.90724 2.22819 6.01265 2.79034C5.8397 3.33641 5.85466 3.87169 6.05746 4.38459C5.92682 4.92262 5.94453 5.45487 6.11005 5.97034C6.10994 5.97066 6.10985 5.97097 6.10977 5.97128C6.06966 5.97319 6.02955 5.97484 5.98946 5.977C5.97746 5.71012 5.92206 5.42897 5.81955 5.14356C5.57616 4.46606 5.03161 4.01291 4.72867 3.80306C4.59862 3.713 3.93154 3.27222 3.56896 3.44241C3.20641 3.6125 3.00268 4.46178 2.96552 4.63028C2.88113 5.01294 2.77572 5.74444 2.99584 6.40863C1.38256 6.81622 0.176617 7.48987 0.0163278 8.40438C0.00965593 8.44238 0.00153484 8.55375 0.00197234 8.60097C0.00197234 8.60097 5.82744e-05 13.2217 3.58691e-06 13.2335C-0.000762038 13.4062 0.121136 13.547 0.272265 13.5479L6.72134 13.5856L6.69206 15.6138C6.69085 15.6975 6.71913 15.7784 6.77048 15.8381C6.82186 15.8979 6.89208 15.9316 6.96539 15.9317L6.99951 15.9317C8.81057 15.9317 10.5249 15.6818 11.8266 15.2282C13.2484 14.7327 14 14.0571 14 13.2745C14 13.2643 14 8.61456 14 8.60609ZM0.549257 8.88113L6.72129 8.91722L6.69474 12.96L0.549257 12.924V8.88113ZM7.24208 12.9681V11.2617C8.96318 11.2404 10.5831 10.9932 11.8266 10.5598C12.5412 10.3108 13.0863 10.0162 13.4519 9.6855V10.955C13.4203 11.7847 11.0705 12.9218 7.24208 12.9681ZM9.80397 6.34253C10.0994 5.51994 11.1022 4.98159 11.3581 4.97272C11.5347 5.18456 11.9171 6.37278 11.6217 7.19531C11.4734 7.60831 11.2546 7.90566 10.9892 8.05519C10.7529 8.18834 10.4947 8.19619 10.2426 8.07791C9.69052 7.81891 9.51834 7.13772 9.80397 6.34253ZM7.84328 5.13287C7.84468 5.13478 7.84632 5.13653 7.84774 5.13841C7.85231 5.14428 7.8569 5.15009 7.86182 5.15559C7.86212 5.15594 7.8624 5.15631 7.8627 5.15666C8.16206 5.48647 8.33536 5.91006 8.38959 6.44588L6.66113 5.86378C6.6605 5.86184 6.65968 5.86 6.65903 5.85809C6.65826 5.85591 6.65774 5.85366 6.65692 5.85147C6.5097 5.45281 6.47941 5.05419 6.56529 4.63828L7.83792 5.12497C7.83976 5.12753 7.8414 5.13031 7.84328 5.13287ZM8.39147 6.83775C8.31901 6.96784 8.06523 7.16669 7.6206 7.27325C7.12554 7.39184 6.72525 7.30187 6.66849 7.14625C6.66406 7.12897 6.65914 7.11047 6.65391 7.09081C6.59805 6.88034 6.51728 6.57456 6.60869 6.23734L8.39147 6.83775ZM6.46475 1.19787C6.7281 1.841 6.93424 2.43006 7.08898 2.98059L6.5698 2.77997C6.56961 2.77806 6.56934 2.77619 6.56912 2.77428C6.56868 2.77034 6.56803 2.76641 6.56745 2.76247C6.56655 2.75612 6.56559 2.74981 6.56433 2.74356C6.56406 2.74225 6.56398 2.74097 6.56368 2.73966C6.4668 2.28056 6.45225 1.71072 6.46475 1.19787ZM6.48818 3.14459L7.26997 3.44672C7.27024 3.44694 7.27051 3.44712 7.27079 3.44737C7.27101 3.44756 7.2712 3.44775 7.27139 3.44794C7.56613 3.69353 7.72975 4.10572 7.76954 4.70303L6.60945 4.25937C6.60789 4.25403 6.6065 4.24862 6.60469 4.24337C6.60382 4.24087 6.6027 4.23844 6.60177 4.23594C6.59914 4.22887 6.59646 4.22184 6.5934 4.215C6.59324 4.21462 6.5931 4.21422 6.59294 4.21384C6.43492 3.86641 6.40052 3.51469 6.48818 3.14459ZM3.48097 4.85556C3.56875 4.41594 3.71022 4.11637 3.77984 4.02772C4.03526 4.03937 5.02256 4.57197 5.31319 5.38109C5.59519 6.16616 5.42541 6.83856 4.88067 7.09416C4.63195 7.21084 4.37733 7.20306 4.14425 7.07178C3.88221 6.92416 3.66625 6.6305 3.51972 6.22256C3.51972 6.22253 3.51972 6.22253 3.51972 6.22253C3.34543 5.73737 3.42062 5.15784 3.48097 4.85556ZM2.37024 7.23706C2.64784 7.14194 2.94544 7.05647 3.25908 6.98084C3.43512 7.27034 3.65239 7.492 3.90226 7.63278C4.10137 7.74494 4.31435 7.80122 4.52944 7.80122C4.71683 7.80119 4.90583 7.75847 5.08854 7.67278C5.52306 7.46891 5.81192 7.08437 5.93081 6.6055C5.96094 6.60378 5.99113 6.60216 6.02137 6.60059C6.0278 6.88609 6.09074 7.12378 6.13017 7.27234C6.13586 7.29378 6.14114 7.31362 6.14573 7.33184C6.14723 7.33772 6.14887 7.34356 6.15065 7.34934C6.28923 7.79709 6.72422 7.95291 7.18282 7.95291C7.36835 7.95291 7.55773 7.92741 7.73292 7.88541C8.32407 7.74375 8.9999 7.35313 8.9591 6.71844C8.9591 6.71834 8.95907 6.71822 8.95907 6.71809C8.95812 6.70331 8.95678 6.68928 8.95522 6.6755C9.02063 6.68253 9.08524 6.68997 9.14939 6.69766C9.02563 7.57394 9.35211 8.33625 10.0348 8.65656C10.219 8.743 10.4096 8.78609 10.5987 8.78609C10.8156 8.78609 11.0304 8.72934 11.2312 8.61622C11.6181 8.39825 11.9282 7.98903 12.128 7.43284C12.128 7.43284 12.128 7.43284 12.128 7.43281C12.1282 7.43244 12.1283 7.43206 12.1284 7.43166C12.9858 7.80294 13.4527 8.23622 13.4527 8.606C13.4527 9.437 11.0977 10.5893 7.24388 10.6363L7.27311 8.61119C7.27432 8.52766 7.24621 8.447 7.19507 8.38728C7.14394 8.32756 7.07402 8.29369 7.00091 8.29328L0.674218 8.25628C0.893461 7.93984 1.41288 7.56519 2.37024 7.23706ZM7.24388 15.3048L7.2686 13.5933C8.97983 13.5698 10.5895 13.3229 11.8266 12.8917C12.5412 12.6427 13.0863 12.3481 13.4519 12.0174C13.4519 12.0174 13.4527 13.2701 13.4527 13.2745C13.4527 14.1055 11.0977 15.2578 7.24388 15.3048Z" fill="#3C122C"/>
<path d="M3.88295 6.17012C3.76838 6.17012 3.6616 6.08721 3.62337 5.95618C3.4717 5.43612 3.68561 4.75996 3.71052 4.68455C3.76387 4.52293 3.92178 4.44137 4.06314 4.50237C4.20448 4.5633 4.27585 4.74359 4.22264 4.90515C4.1775 5.04355 4.06618 5.49637 4.14258 5.7584C4.19038 5.92224 4.11288 6.09937 3.96949 6.15399C3.94084 6.16493 3.91163 6.17012 3.88295 6.17012Z" fill="white"/>
<path d="M10.3125 6.63572C10.2646 6.63572 10.216 6.62135 10.172 6.59113C10.0424 6.50225 10.0004 6.31013 10.0781 6.16203C10.2831 5.77163 10.4848 5.58388 10.5071 5.56375C10.6258 5.45678 10.7979 5.48006 10.8915 5.61566C10.9846 5.75069 10.9649 5.94622 10.8476 6.05347C10.8415 6.05925 10.6978 6.19731 10.5474 6.48385C10.4961 6.5816 10.4055 6.63572 10.3125 6.63572Z" fill="white"/>
<path d="M5.83466 9.64622C5.91825 9.64622 5.98623 9.72394 5.98623 9.81943V10.1147C5.98623 10.2102 5.91822 10.2879 5.83466 10.2879H1.38435C1.30076 10.2879 1.23279 10.2102 1.23279 10.1147V9.81943C1.23279 9.7239 1.30079 9.64622 1.38435 9.64622H5.83466ZM5.83466 9.27122H1.38435C1.11942 9.27122 0.904663 9.51665 0.904663 9.81943V10.1147C0.904663 10.4175 1.11945 10.6629 1.38435 10.6629H5.83466C6.09959 10.6629 6.31435 10.4175 6.31435 10.1147V9.81943C6.31435 9.51665 6.09957 9.27122 5.83466 9.27122Z" fill="#3C122C"/>
<path d="M5.83466 11.5696C5.91825 11.5696 5.98623 11.6473 5.98623 11.7428V12.0381C5.98623 12.1337 5.91822 12.2113 5.83466 12.2113H1.38435C1.30076 12.2113 1.23279 12.1336 1.23279 12.0381V11.7428C1.23279 11.6473 1.30079 11.5696 1.38435 11.5696H5.83466ZM5.83466 11.1946H1.38435C1.11942 11.1946 0.904663 11.4401 0.904663 11.7428V12.0381C0.904663 12.3409 1.11945 12.5863 1.38435 12.5863H5.83466C6.09959 12.5863 6.31435 12.3409 6.31435 12.0381V11.7428C6.31435 11.4401 6.09957 11.1946 5.83466 11.1946Z" fill="#3C122C"/>
</svg>
