<svg width="14" height="16" viewBox="0 0 14 16" fill="none" xmlns="http://www.w3.org/2000/svg">
<path d="M1.49023 12.0938L3.13086 10.9688V8.15625L4.77148 7.03125V4.1875C4.77148 4.1875 5.85599 3.625 7.02682 3.625C8.19766 3.625 9.22852 4.1875 9.22852 4.1875V7.03125L10.8691 8.15625V10.9688L12.5098 12.0938V13.8594C12.5098 13.8594 10.8817 14.4844 7 14.4844C3.11828 14.4844 1.49023 13.8594 1.49023 13.8594V12.0938Z" fill="#EDF3F6"/>
<path d="M3.13086 9.92188H10.8691V11.2812H3.13086V9.92188Z" fill="#8AAADC"/>
<path d="M1.49023 13.8594H12.5098V15.2188H1.49023V13.8594Z" fill="#8AAADC"/>
<path d="M4.77148 5.98438H9.22852V7.34375H4.77148V5.98438Z" fill="#8AAADC"/>
<path d="M6.23435 3.5C6.63149 3.5 6.80695 3.23956 6.80695 3.11575C6.80695 2.38569 6.41906 1.25 6.23435 1.25C6.04964 1.25 5.66174 2.38569 5.66174 3.11575C5.66174 3.23956 5.83721 3.5 6.23435 3.5Z" fill="#B8C9EA"/>
<path d="M7.87497 1.25C7.47783 1.25 7.30237 1.51044 7.30237 1.63425C7.30237 2.36431 7.69027 3.5 7.87497 3.5C8.05968 3.5 8.44758 2.36431 8.44758 1.63425C8.44758 1.51044 8.27212 1.25 7.87497 1.25Z" fill="#766D78"/>
<path d="M7.875 1.25C8.10152 1.25 8.28516 1.04013 8.28516 0.78125C8.28516 0.522367 8.10152 0.3125 7.875 0.3125C7.64848 0.3125 7.46484 0.522367 7.46484 0.78125C7.46484 1.04013 7.64848 1.25 7.875 1.25Z" fill="#FFCDBE"/>
<path d="M6.23438 1.25C6.4609 1.25 6.64453 1.04013 6.64453 0.78125C6.64453 0.522367 6.4609 0.3125 6.23438 0.3125C6.00785 0.3125 5.82422 0.522367 5.82422 0.78125C5.82422 1.04013 6.00785 1.25 6.23438 1.25Z" fill="#FFCDBE"/>
<path d="M5.99994 5.83619C5.90492 5.70859 5.46569 5.82172 5.19357 5.98706C5.12737 5.64306 4.91802 5.1875 4.77143 5.1875C4.62484 5.1875 4.4155 5.64306 4.3493 5.98706C4.07718 5.82172 3.63795 5.70859 3.54293 5.83619C3.42872 5.98953 3.6942 6.64844 3.91508 6.86331C4.13597 7.07819 4.5561 7.32041 4.77143 7.03125C4.98679 7.32037 5.4069 7.07816 5.62779 6.86331C5.84867 6.64844 6.11415 5.9895 5.99994 5.83619Z" fill="#FFC250"/>
<path d="M8.22845 9.77369C8.13343 9.64609 7.69421 9.75922 7.42208 9.92459C7.35588 9.58056 7.14654 9.125 6.99995 9.125C6.85336 9.125 6.64402 9.58056 6.57782 9.92456C6.30569 9.75922 5.86647 9.64609 5.77145 9.77365C5.65723 9.927 5.92272 10.5859 6.1436 10.8008C6.36448 11.0157 6.78462 11.2579 6.99995 10.9687C7.21528 11.2578 7.63544 11.0156 7.8563 10.8008C8.07718 10.5859 8.34264 9.927 8.22845 9.77369Z" fill="#FFC250"/>
<path d="M11.7149 13.7112C11.6199 13.5836 11.1806 13.6967 10.9085 13.8621C10.8423 13.5181 10.633 13.0625 10.4864 13.0625C10.3398 13.0625 10.1305 13.5181 10.0643 13.8621C9.79213 13.6967 9.35291 13.5836 9.25789 13.7112C9.1437 13.8645 9.40916 14.5234 9.63004 14.7383C9.85092 14.9532 10.2711 15.1954 10.4864 14.9062C10.7017 15.1953 11.1219 14.9531 11.3427 14.7383C11.5636 14.5234 11.8291 13.8645 11.7149 13.7112Z" fill="#FFC250"/>
<path d="M13.4531 15.6875H0.546875C0.358887 15.6875 0.205078 15.5117 0.205078 15.2968C0.205078 15.2413 0.205078 15.1885 0.205078 15.1406C0.205078 15.0111 0.296898 14.9062 0.410156 14.9062H13.5898C13.7031 14.9062 13.7949 15.0111 13.7949 15.1406V15.2968C13.7949 15.5117 13.6411 15.6875 13.4531 15.6875Z" fill="#B1ABB4"/>
<path d="M9.22852 4.1875V3.53125C9.22852 3.27344 9.04395 3.0625 8.81836 3.0625H5.18164C4.95605 3.0625 4.77148 3.27344 4.77148 3.53125V4.1875H9.22852Z" fill="#F5FCFF"/>
<path d="M10.8691 8.15625V7.5C10.8691 7.24219 10.6846 7.03125 10.459 7.03125H3.54102C3.31543 7.03125 3.13086 7.24219 3.13086 7.5V8.15625H10.8691Z" fill="#F5FCFF"/>
<path d="M12.5098 12.0938V11.4375C12.5098 11.1797 12.3252 10.9688 12.0996 10.9688H1.90039C1.6748 10.9688 1.49023 11.1797 1.49023 11.4375V12.0938H12.5098Z" fill="#F5FCFF"/>
<path d="M13.5898 14.6719H11.6611C11.7358 14.5475 11.799 14.4102 11.8427 14.2947C11.9714 13.9542 11.9809 13.7068 11.871 13.5593C11.7011 13.3311 11.3035 13.4335 11.0369 13.5444C10.938 13.2404 10.7485 12.8281 10.4863 12.8281C10.2242 12.8281 10.0347 13.2404 9.93579 13.5444C9.66913 13.4335 9.27158 13.3311 9.10167 13.5592C8.99172 13.7068 9.00126 13.9542 9.13 14.2947C9.17366 14.4102 9.23683 14.5475 9.31153 14.6719H1.69531V12.3281H3.07617C3.18946 12.3281 3.28125 12.2232 3.28125 12.0938C3.28125 11.9643 3.18946 11.8594 3.07617 11.8594H1.69531V11.4375C1.69531 11.3083 1.7873 11.2031 1.90039 11.2031H7.63662C7.64118 11.2033 7.64583 11.2033 7.65051 11.2031H12.0996C12.2127 11.2031 12.3047 11.3083 12.3047 11.4375V11.8594H4.0332C3.91992 11.8594 3.82812 11.9643 3.82812 12.0938C3.82812 12.2232 3.91992 12.3281 4.0332 12.3281H12.3047V13.8125C12.3047 13.9419 12.3965 14.0469 12.5098 14.0469C12.6231 14.0469 12.7148 13.9419 12.7148 13.8125V11.4375C12.7148 11.0498 12.4388 10.7344 12.0996 10.7344H11.0742V7.5C11.0742 7.11228 10.7982 6.79688 10.459 6.79688H9.43359V3.53125C9.43359 3.14353 9.15759 2.82812 8.81836 2.82812H8.45176C8.56286 2.45638 8.65271 2.00644 8.65271 1.63425C8.65271 1.48391 8.56171 1.30009 8.38649 1.17203C8.45201 1.06028 8.49023 0.925875 8.49023 0.78125C8.49023 0.392938 8.21477 0.078125 7.875 0.078125C7.53523 0.078125 7.25977 0.392938 7.25977 0.78125C7.25977 0.925875 7.29802 1.06025 7.36351 1.17203C7.18829 1.30009 7.09729 1.48391 7.09729 1.63425C7.09729 2.00644 7.18714 2.45638 7.29824 2.82812H6.99639C6.96459 2.51172 6.88532 2.14319 6.77332 1.80025C6.71612 1.62516 6.65473 1.47141 6.59441 1.35125C6.74896 1.22353 6.84961 1.01587 6.84961 0.78125C6.84961 0.392938 6.57415 0.078125 6.23438 0.078125C5.8946 0.078125 5.61914 0.392938 5.61914 0.78125C5.61914 1.01587 5.71979 1.22353 5.87434 1.35125C5.81402 1.47141 5.75263 1.62516 5.69543 1.80025C5.5834 2.14316 5.50416 2.51172 5.47236 2.82812H5.18164C4.84241 2.82812 4.56641 3.14353 4.56641 3.53125V5.04072C4.40915 5.17825 4.29182 5.45166 4.22095 5.66941C3.95426 5.5585 3.55677 5.45609 3.38682 5.68425C3.27688 5.83184 3.28642 6.07925 3.41515 6.41966C3.45882 6.53516 3.52198 6.67247 3.59669 6.79688H3.54102C3.20179 6.79688 2.92578 7.11228 2.92578 7.5V10.7344H1.90039C1.56116 10.7344 1.28516 11.0498 1.28516 11.4375V14.6719H0.410156C0.183996 14.6719 0 14.8821 0 15.1406V15.2968C0 15.6415 0.245328 15.9219 0.546875 15.9219H13.4531C13.7547 15.9219 14 15.6415 14 15.2968V15.1406C14 14.8821 13.816 14.6719 13.5898 14.6719ZM7.72343 10.6223C7.68294 10.6617 7.63602 10.7005 7.58797 10.7344H6.412C6.36382 10.7004 6.3175 10.6622 6.27657 10.6223C6.13944 10.4889 5.98784 10.13 5.95509 9.95281C6.07094 9.95909 6.29374 10.0173 6.48162 10.1315C6.53825 10.1659 6.6057 10.1681 6.66389 10.1373C6.72213 10.1066 6.76441 10.0465 6.77819 9.97491C6.8238 9.73781 6.9291 9.50656 7 9.40141C7.07093 9.50656 7.1762 9.73781 7.22181 9.97491C7.23559 10.0465 7.27787 10.1066 7.33611 10.1373C7.3943 10.1681 7.46175 10.1659 7.51838 10.1315C7.70629 10.0173 7.92906 9.95906 8.04491 9.95281C8.01216 10.13 7.86056 10.4889 7.72343 10.6223ZM7.875 0.546875C7.98826 0.546875 8.08008 0.651812 8.08008 0.78125C8.08008 0.910688 7.98826 1.01562 7.875 1.01562C7.76174 1.01562 7.66992 0.910688 7.66992 0.78125C7.66992 0.651812 7.76174 0.546875 7.875 0.546875ZM7.875 1.48438C8.12172 1.48438 8.22344 1.60831 8.24244 1.65053C8.2393 2.01681 8.13075 2.48672 8.01544 2.82812H7.73454C7.61923 2.48672 7.51067 2.01681 7.50753 1.65053C7.52656 1.60831 7.62828 1.48438 7.875 1.48438ZM6.23438 0.546875C6.34763 0.546875 6.43945 0.651812 6.43945 0.78125C6.43945 0.910688 6.34763 1.01562 6.23438 1.01562C6.12112 1.01562 6.0293 0.910688 6.0293 0.78125C6.0293 0.651812 6.12112 0.546875 6.23438 0.546875ZM6.23438 1.57356C6.35231 1.809 6.52714 2.34303 6.58353 2.82812H5.88525C5.94161 2.34306 6.11647 1.809 6.23438 1.57356ZM4.97656 3.53125C4.97656 3.402 5.06855 3.29688 5.18164 3.29688H5.66204H5.66338H6.80537H6.80671H7.59276C7.59585 3.29697 7.59886 3.29697 7.60195 3.29688H8.14808C8.15117 3.29697 8.15421 3.29697 8.15724 3.29688H8.81836C8.93145 3.29688 9.02344 3.402 9.02344 3.53125V3.95312H5.72852C5.61523 3.95312 5.52344 4.05806 5.52344 4.1875C5.52344 4.31694 5.61523 4.42188 5.72852 4.42188H9.02344V6.79688H5.94628C6.02096 6.67247 6.08415 6.53516 6.12782 6.41966C6.25655 6.07925 6.26609 5.83184 6.15617 5.68428C5.98623 5.45613 5.58871 5.55847 5.32202 5.66941C5.25115 5.45166 5.13382 5.17825 4.97656 5.04072V3.53125ZM4.2531 6.194C4.30973 6.22844 4.37719 6.23056 4.43537 6.19981C4.49362 6.16909 4.53589 6.10897 4.54967 6.03741C4.59528 5.80031 4.70058 5.56906 4.77148 5.46391C4.84241 5.56906 4.94769 5.80031 4.9933 6.03741C5.00708 6.109 5.04935 6.16909 5.10759 6.19981C5.16578 6.23056 5.23324 6.22844 5.28987 6.194C5.47777 6.07984 5.70054 6.02156 5.8164 6.01531C5.78364 6.19247 5.63205 6.55144 5.49492 6.68484C5.45442 6.72425 5.4075 6.76297 5.35946 6.79688H4.18348C4.1353 6.76294 4.08898 6.72466 4.04805 6.68484C3.91092 6.55144 3.75933 6.1925 3.72657 6.01531C3.84243 6.02156 4.06522 6.07984 4.2531 6.194ZM3.33594 8.39062H8.27148C8.38477 8.39062 8.47656 8.28569 8.47656 8.15625C8.47656 8.02681 8.38477 7.92188 8.27148 7.92188H3.33594V7.5C3.33594 7.37075 3.42792 7.26562 3.54102 7.26562H5.4081C5.41267 7.26581 5.41732 7.26581 5.42199 7.26562H10.459C10.5721 7.26562 10.6641 7.37075 10.6641 7.5V7.92188H9.22852C9.11523 7.92188 9.02344 8.02681 9.02344 8.15625C9.02344 8.28569 9.11523 8.39062 9.22852 8.39062H10.6641V10.7344H8.1748C8.24947 10.61 8.31266 10.4727 8.35633 10.3572C8.48507 10.0167 8.49461 9.76934 8.38469 9.62178C8.21475 9.39363 7.81722 9.49597 7.55054 9.60691C7.45164 9.30294 7.26217 8.89062 7 8.89062C6.73783 8.89062 6.54836 9.30294 6.44946 9.60691C6.18278 9.496 5.78528 9.39359 5.61534 9.62175C5.50539 9.76934 5.51493 10.0167 5.64367 10.3572C5.68734 10.4727 5.7505 10.61 5.8252 10.7344H3.33594V8.39062ZM9.96795 14.069C10.0246 14.1034 10.092 14.1056 10.1502 14.0748C10.2085 14.0441 10.2507 13.984 10.2645 13.9124C10.3101 13.6753 10.4154 13.4441 10.4863 13.3389C10.5573 13.4441 10.6625 13.6753 10.7081 13.9124C10.7219 13.984 10.7642 14.0441 10.8224 14.0748C10.8806 14.1056 10.9481 14.1034 11.0047 14.069C11.1926 13.9548 11.4154 13.8966 11.5312 13.8903C11.4985 14.0675 11.3469 14.4264 11.2098 14.5598C11.1693 14.5992 11.1223 14.638 11.0743 14.6719H9.89833C9.85015 14.6379 9.80383 14.5997 9.76289 14.5598C9.62577 14.4264 9.47417 14.0675 9.44141 13.8903C9.55727 13.8966 9.78007 13.9548 9.96795 14.069ZM13.5898 15.2968C13.5898 15.3815 13.5272 15.4531 13.4531 15.4531H0.546875C0.472773 15.4531 0.410156 15.3815 0.410156 15.2968V15.1406H1.48889H1.49157L11.1218 15.1406C11.1272 15.1408 11.1326 15.1408 11.138 15.1406H13.5898V15.2968Z" fill="black"/>
</svg>
